<svg width="162" height="162" viewBox="0 0 162 162" fill="none" xmlns="http://www.w3.org/2000/svg">
<rect width="162" height="162" fill="#000" opacity="0.3"/>
<circle cx="17" cy="17" r="2" opacity="0.1" fill="#C4C4C4"/>
<circle cx="17" cy="35" r="2" opacity="0.1" fill="#C4C4C4"/>
<circle cx="17" cy="53" r="2" opacity="0.1" fill="#C4C4C4"/>
<circle cx="17" cy="71" r="2" opacity="0.1" fill="#C4C4C4"/>
<circle cx="17" cy="89" r="2" opacity="0.1" fill="#C4C4C4"/>
<circle cx="17" cy="107" r="2" opacity="0.1" fill="#C4C4C4"/>
<circle cx="17" cy="125" r="2" opacity="0.1" fill="#C4C4C4"/>
<circle cx="17" cy="143" r="2" opacity="0.1" fill="#C4C4C4"/>
<circle cx="17" cy="161" r="2" opacity="0.1" fill="#C4C4C4"/>
<circle cx="35" cy="17" r="2" opacity="0.1" fill="#C4C4C4"/>
<circle cx="35" cy="35" r="2" opacity="0.1" fill="#C4C4C4"/>
<circle cx="35" cy="53" r="2" opacity="0.1" fill="#C4C4C4"/>
<circle cx="35" cy="71" r="2" opacity="0.1" fill="#C4C4C4"/>
<circle cx="35" cy="89" r="2" opacity="0.1" fill="#C4C4C4"/>
<circle cx="35" cy="107" r="2" opacity="0.1" fill="#C4C4C4"/>
<circle cx="35" cy="125" r="2" opacity="0.1" fill="#C4C4C4"/>
<circle cx="35" cy="143" r="2" opacity="0.1" fill="#C4C4C4"/>
<circle cx="35" cy="161" r="2" opacity="0.1" fill="#C4C4C4"/>
<circle cx="53" cy="17" r="2" opacity="0.1" fill="#C4C4C4"/>
<circle cx="53" cy="35" r="2" opacity="0.1" fill="#C4C4C4"/>
<circle cx="53" cy="53" r="2" opacity="0.1" fill="#C4C4C4"/>
<circle cx="53" cy="71" r="2" opacity="0.1" fill="#C4C4C4"/>
<circle cx="53" cy="89" r="2" opacity="0.1" fill="#C4C4C4"/>
<circle cx="53" cy="107" r="2" opacity="0.1" fill="#C4C4C4"/>
<circle cx="53" cy="125" r="2" opacity="0.1" fill="#C4C4C4"/>
<circle cx="53" cy="143" r="2" opacity="0.1" fill="#C4C4C4"/>
<circle cx="53" cy="161" r="2" opacity="0.1" fill="#C4C4C4"/>
<circle cx="71" cy="17" r="2" opacity="0.1" fill="#C4C4C4"/>
<circle cx="71" cy="35" r="2" opacity="0.1" fill="#C4C4C4"/>
<circle cx="71" cy="53" r="2" opacity="0.1" fill="#C4C4C4"/>
<circle cx="71" cy="71" r="2" opacity="0.1" fill="#C4C4C4"/>
<circle cx="71" cy="89" r="2" opacity="0.1" fill="#C4C4C4"/>
<circle cx="71" cy="107" r="2" opacity="0.1" fill="#C4C4C4"/>
<circle cx="71" cy="125" r="2" opacity="0.1" fill="#C4C4C4"/>
<circle cx="71" cy="143" r="2" opacity="0.1" fill="#C4C4C4"/>
<circle cx="71" cy="161" r="2" opacity="0.1" fill="#C4C4C4"/>
<circle cx="89" cy="17" r="2" opacity="0.1" fill="#C4C4C4"/>
<circle cx="89" cy="35" r="2" opacity="0.1" fill="#C4C4C4"/>
<circle cx="89" cy="53" r="2" opacity="0.1" fill="#C4C4C4"/>
<circle cx="89" cy="71" r="2" opacity="0.1" fill="#C4C4C4"/>
<circle cx="89" cy="89" r="2" opacity="0.1" fill="#C4C4C4"/>
<circle cx="89" cy="107" r="2" opacity="0.1" fill="#C4C4C4"/>
<circle cx="89" cy="125" r="2" opacity="0.1" fill="#C4C4C4"/>
<circle cx="89" cy="143" r="2" opacity="0.1" fill="#C4C4C4"/>
<circle cx="89" cy="161" r="2" opacity="0.1" fill="#C4C4C4"/>
<circle cx="107" cy="17" r="2" opacity="0.1" fill="#C4C4C4"/>
<circle cx="107" cy="35" r="2" opacity="0.1" fill="#C4C4C4"/>
<circle cx="107" cy="53" r="2" opacity="0.1" fill="#C4C4C4"/>
<circle cx="107" cy="71" r="2" opacity="0.1" fill="#C4C4C4"/>
<circle cx="107" cy="89" r="2" opacity="0.1" fill="#C4C4C4"/>
<circle cx="107" cy="107" r="2" opacity="0.1" fill="#C4C4C4"/>
<circle cx="107" cy="125" r="2" opacity="0.1" fill="#C4C4C4"/>
<circle cx="107" cy="143" r="2" opacity="0.1" fill="#C4C4C4"/>
<circle cx="107" cy="161" r="2" opacity="0.1" fill="#C4C4C4"/>
<circle cx="125" cy="17" r="2" opacity="0.1" fill="#C4C4C4"/>
<circle cx="125" cy="35" r="2" opacity="0.1" fill="#C4C4C4"/>
<circle cx="125" cy="53" r="2" opacity="0.1" fill="#C4C4C4"/>
<circle cx="125" cy="71" r="2" opacity="0.1" fill="#C4C4C4"/>
<circle cx="125" cy="89" r="2" opacity="0.1" fill="#C4C4C4"/>
<circle cx="125" cy="107" r="2" opacity="0.1" fill="#C4C4C4"/>
<circle cx="125" cy="125" r="2" opacity="0.1" fill="#C4C4C4"/>
<circle cx="125" cy="143" r="2" opacity="0.1" fill="#C4C4C4"/>
<circle cx="125" cy="161" r="2" opacity="0.1" fill="#C4C4C4"/>
<circle cx="143" cy="17" r="2" opacity="0.1" fill="#C4C4C4"/>
<circle cx="143" cy="35" r="2" opacity="0.1" fill="#C4C4C4"/>
<circle cx="143" cy="53" r="2" opacity="0.1" fill="#C4C4C4"/>
<circle cx="143" cy="71" r="2" opacity="0.1" fill="#C4C4C4"/>
<circle cx="143" cy="89" r="2" opacity="0.1" fill="#C4C4C4"/>
<circle cx="143" cy="107" r="2" opacity="0.1" fill="#C4C4C4"/>
<circle cx="143" cy="125" r="2" opacity="0.1" fill="#C4C4C4"/>
<circle cx="143" cy="143" r="2" opacity="0.1" fill="#C4C4C4"/>
<circle cx="143" cy="161" r="2" opacity="0.1" fill="#C4C4C4"/>
<circle cx="161" cy="17" r="2" opacity="0.1" fill="#C4C4C4"/>
<circle cx="161" cy="35" r="2" opacity="0.1" fill="#C4C4C4"/>
<circle cx="161" cy="53" r="2" opacity="0.1" fill="#C4C4C4"/>
<circle cx="161" cy="71" r="2" opacity="0.1" fill="#C4C4C4"/>
<circle cx="161" cy="89" r="2" opacity="0.1" fill="#C4C4C4"/>
<circle cx="161" cy="107" r="2" opacity="0.1" fill="#C4C4C4"/>
<circle cx="161" cy="125" r="2" opacity="0.1" fill="#C4C4C4"/>
<circle cx="161" cy="143" r="2" opacity="0.1" fill="#C4C4C4"/>
<circle cx="161" cy="161" r="2" opacity="0.1" fill="#C4C4C4"/>
</svg>
