<svg width="162" height="162" viewBox="0 0 162 162" fill="none" opacity="0.2" xmlns="http://www.w3.org/2000/svg">
<path d="M0 40.5H161" stroke="#1470CC" stroke-dasharray="1"/>
<path d="M0 80.5H161" stroke="#1470CC" stroke-dasharray="1"/>
<path d="M0 120.5H161" stroke="#1470CC" stroke-dasharray="1"/>
<path d="M0 162H161" stroke="#1470CC" stroke-dasharray="1"/>
<path d="M0 0H161" stroke="#1470CC" stroke-dasharray="1"/>
<path d="M162 0V161" stroke="#1470CC" stroke-dasharray="1"/>
<path d="M0 0V161" stroke="#1470CC" stroke-dasharray="1"/>
<path d="M120.5 0V161" stroke="#1470CC" stroke-dasharray="1"/>
<path d="M80.5 0V161" stroke="#1470CC" stroke-dasharray="1"/>
<path d="M40.5 0V161" stroke="#1470CC" stroke-dasharray="1"/>
<path d="M40 53H39.5V53.5H40V53ZM40 41H40.5V40.5H40V41ZM41 53V53.5H41.5V53H41ZM41 41V40.5H40.5V41H41ZM52 41V41.5H52.5V41H52ZM52 40H52.5V39.5H52V40ZM41 40H40.5V40.5H41V40ZM41 29H41.5V28.5H41V29ZM40 29V28.5H39.5V29H40ZM40 40V40.5H40.5V40H40ZM28 40V39.5H27.5V40H28ZM28 41H27.5V41.5H28V41ZM40.5 53V41H39.5V53H40.5ZM41 52.5H40V53.5H41V52.5ZM40.5 41V53H41.5V41H40.5ZM52 40.5H41V41.5H52V40.5ZM51.5 40V41H52.5V40H51.5ZM41 40.5H52V39.5H41V40.5ZM40.5 29V40H41.5V29H40.5ZM40 29.5H41V28.5H40V29.5ZM40.5 40V29H39.5V40H40.5ZM28 40.5H40V39.5H28V40.5ZM28.5 41V40H27.5V41H28.5ZM40 40.5H28V41.5H40V40.5Z" fill="#1470CC"/>
<path d="M40 133H39.5V133.5H40V133ZM40 121H40.5V120.5H40V121ZM41 133V133.5H41.5V133H41ZM41 121V120.5H40.5V121H41ZM52 121V121.5H52.5V121H52ZM52 120H52.5V119.5H52V120ZM41 120H40.5V120.5H41V120ZM41 109H41.5V108.5H41V109ZM40 109V108.5H39.5V109H40ZM40 120V120.5H40.5V120H40ZM28 120V119.5H27.5V120H28ZM28 121H27.5V121.5H28V121ZM40.5 133V121H39.5V133H40.5ZM41 132.5H40V133.5H41V132.5ZM40.5 121V133H41.5V121H40.5ZM52 120.5H41V121.5H52V120.5ZM51.5 120V121H52.5V120H51.5ZM41 120.5H52V119.5H41V120.5ZM40.5 109V120H41.5V109H40.5ZM40 109.5H41V108.5H40V109.5ZM40.5 120V109H39.5V120H40.5ZM28 120.5H40V119.5H28V120.5ZM28.5 121V120H27.5V121H28.5ZM40 120.5H28V121.5H40V120.5Z" fill="#1470CC"/>
<path d="M120 53H119.5V53.5H120V53ZM120 41H120.5V40.5H120V41ZM121 53V53.5H121.5V53H121ZM121 41V40.5H120.5V41H121ZM132 41V41.5H132.5V41H132ZM132 40H132.5V39.5H132V40ZM121 40H120.5V40.5H121V40ZM121 29H121.5V28.5H121V29ZM120 29V28.5H119.5V29H120ZM120 40V40.5H120.5V40H120ZM108 40V39.5H107.5V40H108ZM108 41H107.5V41.5H108V41ZM120.5 53V41H119.5V53H120.5ZM121 52.5H120V53.5H121V52.5ZM120.5 41V53H121.5V41H120.5ZM132 40.5H121V41.5H132V40.5ZM131.5 40V41H132.5V40H131.5ZM121 40.5H132V39.5H121V40.5ZM120.5 29V40H121.5V29H120.5ZM120 29.5H121V28.5H120V29.5ZM120.5 40V29H119.5V40H120.5ZM108 40.5H120V39.5H108V40.5ZM108.5 41V40H107.5V41H108.5ZM120 40.5H108V41.5H120V40.5Z" fill="#1470CC"/>
<path d="M120 133H119.5V133.5H120V133ZM120 121H120.5V120.5H120V121ZM121 133V133.5H121.5V133H121ZM121 121V120.5H120.5V121H121ZM132 121V121.5H132.5V121H132ZM132 120H132.5V119.5H132V120ZM121 120H120.5V120.5H121V120ZM121 109H121.5V108.5H121V109ZM120 109V108.5H119.5V109H120ZM120 120V120.5H120.5V120H120ZM108 120V119.5H107.5V120H108ZM108 121H107.5V121.5H108V121ZM120.5 133V121H119.5V133H120.5ZM121 132.5H120V133.5H121V132.5ZM120.5 121V133H121.5V121H120.5ZM132 120.5H121V121.5H132V120.5ZM131.5 120V121H132.5V120H131.5ZM121 120.5H132V119.5H121V120.5ZM120.5 109V120H121.5V109H120.5ZM120 109.5H121V108.5H120V109.5ZM120.5 120V109H119.5V120H120.5ZM108 120.5H120V119.5H108V120.5ZM108.5 121V120H107.5V121H108.5ZM120 120.5H108V121.5H120V120.5Z" fill="#1470CC"/>
<path d="M92 -0.5H92.5V-1H92V-0.5ZM68 -0.5V-1H67.5V-0.5H68ZM92 0.5V1H92.5V0.5H92ZM81 0.5V0H80.5V0.5H81ZM81 11V11.5H81.5V11H81ZM80 11H79.5V11.5H80V11ZM80 0.5H80.5V0H80V0.5ZM68 0.5H67.5V1H68V0.5ZM80 93H79.5V93.5H80V93ZM80 81H80.5V80.5H80V81ZM81 93V93.5H81.5V93H81ZM81 81V80.5H80.5V81H81ZM92 81V81.5H92.5V81H92ZM92 80H92.5V79.5H92V80ZM81 80H80.5V80.5H81V80ZM81 69H81.5V68.5H81V69ZM80 69V68.5H79.5V69H80ZM80 80V80.5H80.5V80H80ZM68 80V79.5H67.5V80H68ZM68 81H67.5V81.5H68V81ZM80 161.5V162H80.5V161.5H80ZM80 151V150.5H79.5V151H80ZM68 161.5V161H67.5V161.5H68ZM68 162.5H67.5V163H68V162.5ZM92 162.5V163H92.5V162.5H92ZM92 161.5H92.5V161H92V161.5ZM81 161.5H80.5V162H81V161.5ZM81 151H81.5V150.5H81V151ZM92 -1H68V0H92V-1ZM92.5 0.5V-0.5H91.5V0.5H92.5ZM81 1H92V0H81V1ZM80.5 0.5V11H81.5V0.5H80.5ZM81 10.5H80V11.5H81V10.5ZM80.5 11V0.5H79.5V11H80.5ZM68 1H80V0H68V1ZM67.5 -0.5V0.5H68.5V-0.5H67.5ZM80.5 93V81H79.5V93H80.5ZM81 92.5H80V93.5H81V92.5ZM80.5 81V93H81.5V81H80.5ZM92 80.5H81V81.5H92V80.5ZM91.5 80V81H92.5V80H91.5ZM81 80.5H92V79.5H81V80.5ZM80.5 69V80H81.5V69H80.5ZM80 69.5H81V68.5H80V69.5ZM80.5 80V69H79.5V80H80.5ZM68 80.5H80V79.5H68V80.5ZM68.5 81V80H67.5V81H68.5ZM80 80.5H68V81.5H80V80.5ZM80.5 161.5V151H79.5V161.5H80.5ZM68 162H80V161H68V162ZM68.5 162.5V161.5H67.5V162.5H68.5ZM92 162H68V163H92V162ZM91.5 161.5V162.5H92.5V161.5H91.5ZM81 162H92V161H81V162ZM80.5 151V161.5H81.5V151H80.5ZM80 151.5H81V150.5H80V151.5Z" fill="#1470CC"/>
<path d="M150 81H149.5V81.5H150V81ZM162 81V81.5H162.5V81H162ZM150 80V79.5H149.5V80H150ZM162 80H162.5V79.5H162V80ZM150 81.5H162V80.5H150V81.5ZM149.5 80V81H150.5V80H149.5ZM162 79.5H150V80.5H162V79.5ZM162.5 81V80H161.5V81H162.5Z" fill="#1470CC"/>
<path fill-rule="evenodd" clip-rule="evenodd" d="M162.5 162.5V163H149.5V161H161V150.5H163V162.5H162.5Z" fill="#1470CC"/>
<path fill-rule="evenodd" clip-rule="evenodd" d="M162.5 162.5V163H149.5V161H161V150.5H163V162.5H162.5Z" fill="#1470CC"/>
<path d="M0 69V93" stroke="#1470CC" stroke-width="2"/>
<path d="M162 69V93" stroke="#1470CC" stroke-width="2"/>
<path d="M12.5 80.5H0.5" stroke="#1470CC" stroke-width="2"/>
<path fill-rule="evenodd" clip-rule="evenodd" d="M-0.5 162.5V163H12.5V161H1V150.5H-1V162.5H-0.5Z" fill="#1470CC"/>
<path fill-rule="evenodd" clip-rule="evenodd" d="M-0.5 0V-1H12.5V1H1V11.5H-1V0H-0.5Z" fill="#1470CC"/>
<path fill-rule="evenodd" clip-rule="evenodd" d="M150.5 1L160.5 1L160.5 11.5L162.5 11.5L162.5 1L162.5 -0.999999L162.5 -1.5L160.5 -1.5L160.5 -1L150.5 -1L150.5 1Z" fill="#1470CC"/>
<path d="M80.5 0V11" stroke="#1470CC"/>
</svg>
