<?xml version="1.0" encoding="UTF-8"?>
<svg width="688px" height="14px" viewBox="0 0 688 14" version="1.1" xmlns="http://www.w3.org/2000/svg" xmlns:xlink="http://www.w3.org/1999/xlink">
    <title>编组 7</title>
    <g id="页面-1" stroke="none" stroke-width="1" fill="none" fill-rule="evenodd">
        <g id="资源综合视图" transform="translate(-27.000000, -20.000000)">
            <g id="编组-7" transform="translate(28.000000, 20.000000)">
                <g id="编组-14备份" transform="translate(622.500000, 7.000000) scale(-1, 1) translate(-622.500000, -7.000000) translate(558.000000, 0.000000)" fill="#1370CB">
                    <rect id="矩形" opacity="0.701543899" x="124" y="0" width="5" height="14"></rect>
                    <rect id="矩形备份-2" opacity="0.789783296" x="34" y="0" width="5" height="14"></rect>
                    <rect id="矩形备份-3" opacity="0.395135789" x="43" y="0" width="33" height="14"></rect>
                    <rect id="矩形备份" opacity="0.602213542" x="90" y="0" width="30" height="14"></rect>
                    <rect id="矩形备份-21" opacity="0.198521205" x="0" y="0" width="30" height="14"></rect>
                    <rect id="矩形备份-18" opacity="0.396763393" x="78" y="0" width="2" height="14"></rect>
                    <rect id="矩形备份-19" opacity="0.396763393" x="82" y="0" width="2" height="14"></rect>
                    <rect id="矩形备份-20" opacity="0.396763393" x="86" y="0" width="2" height="14"></rect>
                </g>
                <rect id="矩形" fill="#1370CB" x="547" y="3" width="3" height="11"></rect>
                <line x1="1.4408215e-13" y1="13.5" x2="549.5" y2="13.5" id="直线-5备份" stroke="#1370CB" stroke-linecap="square"></line>
                <rect id="矩形备份-23" fill="#1370CB" x="0" y="3" width="3" height="11"></rect>
                <line x1="35" y1="4" x2="544" y2="4" id="直线-6" stroke="#1370CB" stroke-width="4" stroke-linecap="round" stroke-dasharray="0,80.00000352859497"></line>
            </g>
        </g>
    </g>
</svg>