<svg t="1666777023473" class="icon" viewBox="0 0 1024 1024" version="1.1" xmlns="http://www.w3.org/2000/svg" p-id="3563" width="32" height="32"><path d="M884.363636 325.818182a46.545455 46.545455 0 0 1 46.545455 46.545454v279.272728a46.545455 46.545455 0 0 1-46.545455 46.545454H139.636364a46.545455 46.545455 0 0 1-46.545455-46.545454V372.363636a46.545455 46.545455 0 0 1 46.545455-46.545454h744.727272z m-23.272727 46.545454H162.909091a23.272727 23.272727 0 0 0-23.272727 23.272728v232.727272a23.272727 23.272727 0 0 0 23.272727 23.272728h698.181818a23.272727 23.272727 0 0 0 23.272727-23.272728V395.636364a23.272727 23.272727 0 0 0-23.272727-23.272728z m-372.363636 186.181819a23.272727 23.272727 0 1 1 0 46.545454 23.272727 23.272727 0 0 1 0-46.545454z m93.090909 0a23.272727 23.272727 0 1 1 0 46.545454 23.272727 23.272727 0 0 1 0-46.545454z m93.090909 0a23.272727 23.272727 0 1 1 0 46.545454 23.272727 23.272727 0 0 1 0-46.545454z m93.090909 0a23.272727 23.272727 0 1 1 0 46.545454 23.272727 23.272727 0 0 1 0-46.545454z m-535.272727-139.636364a23.272727 23.272727 0 0 1 23.272727 23.272727v139.636364a23.272727 23.272727 0 0 1-46.545455 0v-139.636364a23.272727 23.272727 0 0 1 23.272728-23.272727z m93.090909 0a23.272727 23.272727 0 0 1 23.272727 23.272727v139.636364a23.272727 23.272727 0 0 1-46.545454 0v-139.636364a23.272727 23.272727 0 0 1 23.272727-23.272727z m162.909091 0a23.272727 23.272727 0 1 1 0 46.545454 23.272727 23.272727 0 0 1 0-46.545454z m93.090909 0a23.272727 23.272727 0 1 1 0 46.545454 23.272727 23.272727 0 0 1 0-46.545454z m93.090909 0a23.272727 23.272727 0 1 1 0 46.545454 23.272727 23.272727 0 0 1 0-46.545454z m93.090909 0a23.272727 23.272727 0 1 1 0 46.545454 23.272727 23.272727 0 0 1 0-46.545454z" fill="#cccccc" p-id="3564"></path></svg>