<?xml version="1.0" standalone="no"?><!DOCTYPE svg PUBLIC "-//W3C//DTD SVG 1.1//EN" "http://www.w3.org/Graphics/SVG/1.1/DTD/svg11.dtd"><svg t="1670482897095" class="icon" viewBox="0 0 1024 1024" version="1.1" xmlns="http://www.w3.org/2000/svg" p-id="13907" xmlns:xlink="http://www.w3.org/1999/xlink" width="128" height="128"><path d="M777.06 954.98H248.82c-98.18 0-178.07-79.87-178.07-178.05V248.69c0-98.18 79.89-178.05 178.07-178.05h528.24c98.18 0 178.03 79.87 178.03 178.05v528.24c0 98.18-79.85 178.05-178.03 178.05zM248.82 146.45c-56.38 0-102.25 45.87-102.25 102.23v528.24c0 56.36 45.87 102.23 102.25 102.23h528.24c56.35 0 102.21-45.87 102.21-102.23V248.69c0-56.36-45.87-102.23-102.21-102.23H248.82z" fill="#050500" p-id="13908"></path><path d="M444.32 496.63c-9.77 0-19.55-3.76-26.95-11.27l-198.1-200.5c-14.73-14.88-14.59-38.89 0.3-53.61 14.92-14.68 38.91-14.6 53.61 0.33l198.1 200.5c14.73 14.88 14.59 38.89-0.3 53.61-7.41 7.29-17.03 10.94-26.66 10.94z" fill="#050500" p-id="13909"></path><path d="M446.25 296.13H246.23c-20.95 0-37.91-16.97-37.91-37.91 0-20.94 16.96-37.91 37.91-37.91h200.02c20.95 0 37.91 16.97 37.91 37.91 0 20.93-16.96 37.91-37.91 37.91z" fill="#050500" p-id="13910"></path><path d="M246.23 496.15c-20.95 0-37.91-16.97-37.91-37.91V258.22c0-20.94 16.96-37.91 37.91-37.91s37.91 16.97 37.91 37.91v200.02c0 20.93-16.96 37.91-37.91 37.91zM782.88 807.58c-9.77 0-19.55-3.76-26.95-11.27l-198.1-200.52c-14.73-14.88-14.59-38.89 0.3-53.61 14.92-14.68 38.91-14.57 53.61 0.33l198.1 200.52c14.73 14.88 14.59 38.89-0.3 53.61a37.87 37.87 0 0 1-26.66 10.94z" fill="#050500" p-id="13911"></path><path d="M782.88 807.58H582.82c-20.95 0-37.91-16.97-37.91-37.91 0-20.94 16.96-37.91 37.91-37.91h200.06c20.95 0 37.91 16.97 37.91 37.91-0.01 20.94-16.96 37.91-37.91 37.91z" fill="#050500" p-id="13912"></path><path d="M782.88 807.58c-20.95 0-37.91-16.97-37.91-37.91V569.63c0-20.94 16.96-37.91 37.91-37.91 20.95 0 37.91 16.97 37.91 37.91v200.04c-0.01 20.94-16.96 37.91-37.91 37.91z" fill="#050500" p-id="13913"></path></svg>