<?xml version="1.0" standalone="no"?><!DOCTYPE svg PUBLIC "-//W3C//DTD SVG 1.1//EN" "http://www.w3.org/Graphics/SVG/1.1/DTD/svg11.dtd"><svg t="1671702878079" class="icon" viewBox="0 0 1024 1024" version="1.1" xmlns="http://www.w3.org/2000/svg" p-id="35471" xmlns:xlink="http://www.w3.org/1999/xlink" width="32" height="32"><path d="M341.333333 149.333333H85.333333c-23.466667 0-42.666667 19.2-42.666666 42.666667v640c0 23.466667 19.2 42.666667 42.666666 42.666667h256c23.466667 0 42.666667-19.2 42.666667-42.666667V192c0-23.466667-19.2-42.666667-42.666667-42.666667zM106.666667 810.666667V213.333333h213.333333v597.333334H106.666667z" p-id="35472"></path><path d="M245.333333 277.333333h-64c-17.066667 0-32 14.933333-32 32S164.266667 341.333333 181.333333 341.333333h64c17.066667 0 32-14.933333 32-32s-14.933333-32-32-32zM245.333333 405.333333h-64c-17.066667 0-32 14.933333-32 32S164.266667 469.333333 181.333333 469.333333h64c17.066667 0 32-14.933333 32-32s-14.933333-32-32-32zM650.666667 277.333333h-64c-17.066667 0-32 14.933333-32 32s14.933333 32 32 32h64c17.066667 0 32-14.933333 32-32s-14.933333-32-32-32zM650.666667 405.333333h-64c-17.066667 0-32 14.933333-32 32s14.933333 32 32 32h64c17.066667 0 32-14.933333 32-32s-14.933333-32-32-32zM213.333333 597.333333c-23.466667 0-42.666667 19.2-42.666666 42.666667s19.2 42.666667 42.666666 42.666667 42.666667-19.2 42.666667-42.666667-19.2-42.666667-42.666667-42.666667zM821.333333 469.333333c-23.466667 0-46.933333 12.8-59.733333 32l-87.466667 134.4c-14.933333 23.466667-17.066667 51.2-4.266666 74.666667 12.8 21.333333 34.133333 36.266667 59.733333 38.4v53.333333c0 40.533333 32 72.533333 72.533333 72.533334h40.533334c40.533333 0 72.533333-32 72.533333-72.533334v-53.333333c25.6-2.133333 46.933333-17.066667 59.733333-38.4 10.666667-23.466667 8.533333-53.333333-6.4-74.666667l-87.466666-134.4c-12.8-21.333333-36.266667-32-59.733334-32z m-89.6 217.6c-6.4 0-8.533333-4.266667-8.533333-6.4-2.133333-2.133333-2.133333-6.4 0-10.666666l87.466667-134.4c2.133333-4.266667 6.4-4.266667 8.533333-4.266667 2.133333 0 6.4 0 8.533333 4.266667l87.466667 134.4c6.4 4.266667 4.266667 8.533333 2.133333 10.666666-2.133333 2.133333-4.266667 6.4-8.533333 6.4h-57.6v115.2c0 6.4-4.266667 10.666667-10.666667 10.666667h-40.533333c-6.4 0-10.666667-4.266667-10.666667-10.666667v-115.2h-57.6z" p-id="35473"></path><path d="M746.666667 149.333333H490.666667c-23.466667 0-42.666667 19.2-42.666667 42.666667v640c0 23.466667 19.2 42.666667 42.666667 42.666667h149.333333c19.2 0 36.266667-19.2 29.866667-38.4-4.266667-14.933333-14.933333-25.6-29.866667-25.6h-128V213.333333h213.333333v172.8c0 17.066667 14.933333 32 32 32 4.266667 0 8.533333 0 12.8-2.133333 12.8-4.266667 19.2-17.066667 19.2-29.866667V192c0-23.466667-19.2-42.666667-42.666666-42.666667z" fill="#cccccc" p-id="35474"></path></svg>