<?xml version="1.0" standalone="no"?><!DOCTYPE svg PUBLIC "-//W3C//DTD SVG 1.1//EN" "http://www.w3.org/Graphics/SVG/1.1/DTD/svg11.dtd"><svg t="1669779969170" class="icon" viewBox="0 0 1024 1024" version="1.1" xmlns="http://www.w3.org/2000/svg" p-id="12204" fill="#cccccc" xmlns:xlink="http://www.w3.org/1999/xlink" width="32" height="32"><path d="M138.666667 661.333333c-17.066667 0-32-14.933333-32-32S121.6 597.333333 138.666667 597.333333H170.666667v-64H138.666667c-17.066667 0-32-14.933333-32-32S121.6 469.333333 138.666667 469.333333H170.666667v-64H138.666667c-17.066667 0-32-14.933333-32-32S121.6 341.333333 138.666667 341.333333H170.666667v-85.333333H128c-46.933333 0-85.333333 38.4-85.333333 85.333333v341.333334c0 46.933333 38.4 85.333333 85.333333 85.333333h42.666667v-106.666667H138.666667zM896 256h-42.666667v85.333333h32c17.066667 0 32 14.933333 32 32s-14.933333 32-32 32H853.333333v64h32c17.066667 0 32 14.933333 32 32s-14.933333 32-32 32H853.333333v64h32c17.066667 0 32 14.933333 32 32s-14.933333 32-32 32H853.333333v106.666667h42.666667c46.933333 0 85.333333-38.4 85.333333-85.333333V341.333333c0-46.933333-38.4-85.333333-85.333333-85.333333zM616.533333 469.333333H789.333333V256c0-46.933333-38.4-85.333333-85.333333-85.333333H320c-46.933333 0-85.333333 38.4-85.333333 85.333333v213.333333h160c4.266667 0 6.4-2.133333 8.533333-4.266666l66.133333-66.133334v-4.266666-10.666667-2.133333-8.533334c4.266667-29.866667 29.866667-53.333333 59.733334-55.466666h14.933333c2.133333 0 4.266667 2.133333 6.4 2.133333 2.133333 0 4.266667 0 6.4 2.133333 2.133333 0 4.266667 2.133333 6.4 4.266667 2.133333 0 4.266667 2.133333 4.266667 2.133333 2.133333 2.133333 4.266667 2.133333 6.4 4.266667 2.133333 2.133333 2.133333 2.133333 4.266666 2.133333 2.133333 2.133333 4.266667 4.266667 4.266667 6.4 0 2.133333 2.133333 2.133333 2.133333 4.266667 2.133333 2.133333 2.133333 4.266667 4.266667 8.533333 0 2.133333 2.133333 2.133333 2.133333 4.266667 2.133333 4.266667 2.133333 8.533333 4.266667 12.8v12.8c0 32-23.466667 57.6-55.466667 61.866667h-8.533333-10.666667c-2.133333 0-6.4-2.133333-8.533333-2.133334l-74.666667 74.666667c-8.533333 8.533333-21.333333 12.8-32 12.8l-170.666666 2.133333v234.666667c0 46.933333 38.4 85.333333 85.333333 85.333333h384c46.933333 0 85.333333-38.4 85.333333-85.333333V533.333333h-160c-4.266667 0-6.4 2.133333-8.533333 4.266667L554.666667 603.733333v25.6c-4.266667 29.866667-29.866667 53.333333-59.733334 55.466667h-14.933333c-2.133333 0-4.266667-2.133333-6.4-2.133333-2.133333 0-4.266667 0-6.4-2.133334-2.133333 0-4.266667-2.133333-6.4-4.266666-2.133333 0-4.266667-2.133333-4.266667-2.133334-2.133333-2.133333-4.266667-2.133333-6.4-4.266666l-4.266666-4.266667c-2.133333-2.133333-4.266667-4.266667-4.266667-6.4 0-2.133333-2.133333-2.133333-2.133333-4.266667-2.133333-2.133333-2.133333-4.266667-4.266667-8.533333 0-2.133333-2.133333-2.133333-2.133333-4.266667-2.133333-4.266667-2.133333-8.533333-4.266667-12.8v-2.133333-10.666667c0-32 23.466667-57.6 55.466667-61.866666h19.2c2.133333 0 6.4 2.133333 8.533333 2.133333l74.666667-74.666667c6.4-8.533333 17.066667-12.8 29.866666-12.8z" p-id="12205" fill="#cccccc"></path></svg>