<?xml version="1.0" standalone="no"?><!DOCTYPE svg PUBLIC "-//W3C//DTD SVG 1.1//EN" "http://www.w3.org/Graphics/SVG/1.1/DTD/svg11.dtd"><svg class="icon" width="200px" height="200.00px" viewBox="0 0 1024 1024" version="1.1" xmlns="http://www.w3.org/2000/svg"><path fill="#bfbfbf" d="M910.8992 347.3408v-42.1376h-168.3968a467.968 467.968 0 0 1 85.76-16.6912 13.5168 13.5168 0 0 0-1.792-26.8288 159.1808 159.1808 0 0 1-61.44-6.1952 470.3232 470.3232 0 0 1 65.024-11.1104 13.0048 13.0048 0 0 0-1.792-25.9072 160.4096 160.4096 0 0 1-63.4368-6.912 480.6144 480.6144 0 0 1 62.0544-10.9056l5.12-0.4096a12.7488 12.7488 0 0 0 10.9056-14.592 12.9024 12.9024 0 0 0-11.1104-11.008h-2.816l-4.1984 0.4096a160.9216 160.9216 0 0 1-59.4432-7.5264 477.184 477.184 0 0 1 67.6352-11.52h0.6144a12.8512 12.8512 0 0 0 0-25.6 17.1008 17.1008 0 0 0-2.304 0 159.8464 159.8464 0 0 1-64.0512-7.1168 454.656 454.656 0 0 1 57.0368-10.24l11.1104-0.6144a13.056 13.056 0 0 0-3.0208-25.9072l-9.728 1.1776a163.2768 163.2768 0 0 1-54.528-7.9872 471.6032 471.6032 0 0 1 68.2496-11.7248 12.8512 12.8512 0 0 0-2.816-25.2416 486.4 486.4 0 0 0-107.1616 22.6304 12.8512 12.8512 0 0 0-7.9872 16.3328 13.056 13.056 0 0 0 8.192 8.0896 12.544 12.544 0 0 0 3.584 2.6112c7.0144 3.3792 14.1312 6.4 21.504 9.1136-9.0112 2.4064-17.92 5.12-26.8288 7.9872a12.9024 12.9024 0 0 0-7.5264 16.5888 13.056 13.056 0 0 0 8.3968 7.8848l2.816 1.792c7.2192 3.584 14.592 6.7072 22.1184 9.5232-9.1136 2.6112-18.2272 5.4272-27.2384 8.3968a12.8 12.8 0 0 0 0.7168 24.32 12.288 12.288 0 0 0 3.1232 1.9968 236.6976 236.6976 0 0 0 21.9136 9.3184c-9.1136 2.5088-18.2272 5.12-27.2384 8.192a12.8 12.8 0 0 0-7.68 16.4864 12.6464 12.6464 0 0 0 9.216 8.0896l2.2016 1.3824a231.936 231.936 0 0 0 22.8352 9.984c-9.4208 2.5088-18.8928 5.12-28.2112 8.3968a12.8512 12.8512 0 0 0 3.7888 24.832 229.5808 229.5808 0 0 0 24.6272 10.24c-10.24 2.6112-20.0192 5.6832-30.0032 8.9088a12.8512 12.8512 0 0 0-7.9872 16.128 17.6128 17.6128 0 0 0 1.5872 3.1232h-147.5072a459.3664 459.3664 0 0 1 85.76-16.6912 13.5168 13.5168 0 0 0-1.792-26.8288 159.1808 159.1808 0 0 1-61.44-6.1952 469.9648 469.9648 0 0 1 65.024-10.9056 13.0048 13.0048 0 0 0-1.792-25.9072 160.4096 160.4096 0 0 1-63.4368-6.912 480.512 480.512 0 0 1 62.0544-10.9056l5.12-0.4096a12.7488 12.7488 0 0 0 10.9056-14.592 12.9024 12.9024 0 0 0-11.1104-11.008h-2.816l-4.1984 0.4096a160.9216 160.9216 0 0 1-59.4432-7.5264 457.1136 457.1136 0 0 1 67.4304-11.3152h0.6144a12.8512 12.8512 0 1 0 0-25.6 17.1008 17.1008 0 0 0-2.304 0 159.8464 159.8464 0 0 1-64.0512-7.1168 454.7584 454.7584 0 0 1 57.0368-10.24l11.1104-0.6144a13.056 13.056 0 0 0-3.0208-25.9072l-9.728 1.1776a163.2768 163.2768 0 0 1-54.528-7.9872 476.8768 476.8768 0 0 1 68.1472-11.52 12.8512 12.8512 0 0 0-2.6112-25.6 486.4 486.4 0 0 0-107.1616 22.6304 12.9024 12.9024 0 0 0-7.9872 16.3328 13.056 13.056 0 0 0 8.192 8.0896 12.544 12.544 0 0 0 3.584 2.6112c7.0144 3.3792 14.1312 6.4 21.504 9.1136-9.0112 2.4064-17.92 5.12-26.8288 7.9872a12.9024 12.9024 0 0 0-7.5264 16.5888 13.056 13.056 0 0 0 8.3968 7.8848l2.816 1.792c7.2192 3.584 14.592 6.7072 22.1184 9.5232-9.1136 2.6112-18.2272 5.4272-27.2384 8.3968a12.8 12.8 0 0 0 0.7168 24.32 12.288 12.288 0 0 0 3.1232 1.9968 237.1072 237.1072 0 0 0 21.9136 9.3184c-9.1136 2.5088-18.2272 5.12-27.2384 8.192a12.8 12.8 0 0 0-7.6288 16.4352 12.6464 12.6464 0 0 0 9.216 8.0896l2.2016 1.3824a231.4752 231.4752 0 0 0 22.8352 9.984c-9.4208 2.5088-18.8928 5.12-28.2112 8.3968a12.8512 12.8512 0 0 0-7.424 16.5888 13.056 13.056 0 0 0 11.008 8.2944 229.632 229.632 0 0 0 24.6272 10.24c-10.24 2.6112-20.0192 5.6832-30.0032 8.9088a12.6464 12.6464 0 0 0-8.0896 15.9232 14.3872 14.3872 0 0 0 1.6896 3.3792H387.4304a467.968 467.968 0 0 1 85.76-16.6912 13.5168 13.5168 0 0 0-1.792-26.8288 159.1808 159.1808 0 0 1-61.44-6.1952 466.944 466.944 0 0 1 64.768-10.9056 13.0048 13.0048 0 0 0-1.792-25.9072 160.4096 160.4096 0 0 1-63.4368-6.912 480.6144 480.6144 0 0 1 62.0544-10.9056l5.12-0.4096a12.7488 12.7488 0 0 0 10.9056-14.592 12.9024 12.9024 0 0 0-11.1104-11.008h-2.816l-4.3008 0.1536a160.9216 160.9216 0 0 1-59.4432-7.5264 477.184 477.184 0 0 1 67.6352-11.52h0.6144a12.8512 12.8512 0 0 0-2.4064-25.6 159.8464 159.8464 0 0 1-64.0512-7.1168 454.6048 454.6048 0 0 1 57.0368-10.24l11.1104-0.6144a13.056 13.056 0 0 0-3.0208-25.9072l-9.728 1.1776a163.2768 163.2768 0 0 1-54.528-7.9872 471.6032 471.6032 0 0 1 68.2496-11.7248 12.8512 12.8512 0 0 0-2.7136-25.2416 486.4 486.4 0 0 0-107.1616 22.6304 12.8512 12.8512 0 0 0-7.9872 16.3328 13.056 13.056 0 0 0 8.192 8.0896 12.544 12.544 0 0 0 3.584 2.6112c7.0144 3.3792 14.1312 6.4 21.504 9.1136a486.4 486.4 0 0 0-26.624 7.9872 12.9024 12.9024 0 0 0-7.5264 16.5888 13.056 13.056 0 0 0 8.3968 7.8848l2.816 1.792c7.2192 3.584 14.592 6.7072 22.1184 9.5232-9.3184 2.6112-18.5344 5.4272-27.6992 8.3968a12.8 12.8 0 0 0 0.7168 24.32 12.288 12.288 0 0 0 3.1232 1.9968 236.8512 236.8512 0 0 0 21.9136 9.3184c-9.1136 2.5088-18.2272 5.12-27.2384 8.192a12.8 12.8 0 0 0-7.6288 16.4864 12.6464 12.6464 0 0 0 9.216 8.0896l2.2016 1.3824a212.6848 212.6848 0 0 0 23.0912 9.984c-9.4208 2.5088-18.8928 5.12-28.2112 8.3968a12.8512 12.8512 0 0 0-7.424 16.5888 13.056 13.056 0 0 0 11.008 8.2944 209.92 209.92 0 0 0 24.6272 10.24c-10.24 2.6112-20.0192 5.6832-30.0032 8.9088a12.8512 12.8512 0 0 0-7.9872 16.128 17.664 17.664 0 0 0 1.5872 3.1232H209.5104a467.968 467.968 0 0 1 85.76-16.6912 13.568 13.568 0 0 0-1.792-26.624 159.1808 159.1808 0 0 1-61.44-6.1952 464.7936 464.7936 0 0 1 64.768-11.1104 13.0048 13.0048 0 0 0-1.792-25.9072 162.2016 162.2016 0 0 1-63.4368-6.6048 480.4608 480.4608 0 0 1 62.0544-10.9056l5.12-0.4096a12.7488 12.7488 0 0 0 10.9056-14.592 12.9024 12.9024 0 0 0-11.1104-11.008h-2.816l-4.1984 0.4096a160.9216 160.9216 0 0 1-59.4432-7.5264 477.0816 477.0816 0 0 1 67.6352-11.52h0.6144a12.8512 12.8512 0 1 0 0-25.6 17.152 17.152 0 0 0-2.304 0 159.8464 159.8464 0 0 1-64.0512-7.1168 454.656 454.656 0 0 1 57.0368-10.24l11.1104-0.6144a13.056 13.056 0 0 0-3.0208-25.9072l-9.728 1.1776a163.2768 163.2768 0 0 1-54.528-7.9872 471.6032 471.6032 0 0 1 68.2496-11.7248 12.8512 12.8512 0 0 0-2.6112-25.6 486.4 486.4 0 0 0-107.1616 22.6304 12.8512 12.8512 0 0 0-7.9872 16.3328 13.056 13.056 0 0 0 8.192 8.0896 12.544 12.544 0 0 0 3.584 2.6112c7.0144 3.3792 14.1312 6.4 21.504 9.1136-9.0112 2.4064-17.92 5.12-26.8288 7.9872a12.9024 12.9024 0 0 0-7.5264 16.5888 13.056 13.056 0 0 0 8.3968 7.8848l2.816 1.792c7.2192 3.584 14.592 6.7072 22.1184 9.5232-9.1136 2.6112-18.3296 5.4272-27.4432 8.3968a12.8 12.8 0 0 0 0.7168 24.32 10.6496 10.6496 0 0 0 3.1232 2.2016c7.2192 3.4816 14.592 6.6048 22.1184 9.3184-9.1136 2.5088-18.2272 5.12-27.2384 8.192a12.8 12.8 0 0 0-7.6288 16.4352 12.6464 12.6464 0 0 0 9.216 8.0896l2.2016 1.3824a230.0928 230.0928 0 0 0 22.8352 9.728c-9.6256 2.5088-18.9952 5.12-28.2112 8.3968a12.8512 12.8512 0 0 0-7.424 16.5888 13.056 13.056 0 0 0 11.008 8.2944 229.5296 229.5296 0 0 0 24.6272 10.24c-10.24 2.6112-20.0192 5.6832-30.0032 8.9088a12.8512 12.8512 0 0 0-7.9872 16.128 17.5616 17.5616 0 0 0 1.5872 3.1232H85.3504v42.24h65.2288V897.024h-23.04v41.984h-42.1888v42.1376h825.5488v-42.1376h-42.1888v-41.984h-21.504V347.3408h63.6416zM350.1056 841.728l117.76-194.2528H336.7424l309.2992-235.0592-117.76 194.2528h131.4816L350.3104 841.728z"  /></svg>