<?xml version="1.0" standalone="no"?><!DOCTYPE svg PUBLIC "-//W3C//DTD SVG 1.1//EN" "http://www.w3.org/Graphics/SVG/1.1/DTD/svg11.dtd"><svg class="icon" width="200px" height="200.00px" viewBox="0 0 1024 1024" version="1.1" xmlns="http://www.w3.org/2000/svg"><path fill="#bfbfbf" d="M436.224 323.584c-9.728-4.096-20.992-2.56-29.696 3.584-8.704 6.656-12.8 16.896-11.776 27.648 1.536 10.752 8.192 19.968 17.92 24.064 9.728 4.096 20.992 2.56 29.696-3.584 8.704-6.656 12.8-16.896 11.776-27.648-1.536-10.752-8.192-19.968-17.92-24.064zM262.144 323.584c-9.728-4.096-20.992-2.56-29.696 3.584-8.704 6.656-12.8 16.896-11.776 27.648 1.536 10.752 8.192 19.968 17.92 24.064 9.728 4.096 20.992 2.56 29.696-3.584 8.704-6.656 12.8-16.896 11.776-27.648-1.024-10.752-8.192-19.968-17.92-24.064zM783.872 323.584c-9.728-4.096-20.992-2.56-29.696 3.584-8.704 6.656-12.8 16.896-11.776 27.648 1.536 10.752 8.192 19.968 17.92 24.064 9.728 4.096 20.992 2.56 29.696-3.584 8.704-6.656 12.8-16.896 11.776-27.648-1.536-10.752-8.192-19.968-17.92-24.064zM610.304 323.584c-9.728-4.096-20.992-2.56-29.696 3.584-8.704 6.656-12.8 16.896-11.776 27.648 1.536 10.752 8.192 19.968 17.92 24.064 9.728 4.096 20.992 2.56 29.696-3.584 8.704-6.656 12.8-16.896 11.776-27.648s-8.192-19.968-17.92-24.064zM220.672 164.352h104.448v104.448H220.672zM459.776 164.352h104.448v104.448H459.776zM698.88 164.352h104.448v104.448h-104.448zM832 32.256h-640c-52.736 0-96.256 43.008-96.256 96.256v768c0 52.736 43.008 96.256 96.256 96.256h640c52.736 0 96.256-43.008 96.256-96.256V128c0-52.736-43.52-95.744-96.256-95.744z m-640 64h640c17.92 0 32.256 14.336 32.256 32.256v320.512H159.744V128c0.512-17.408 14.848-31.744 32.256-31.744z m640 832h-640c-17.408 0-32.256-14.336-32.256-32.256v-383.488h704V896c0.512 17.92-13.824 32.256-31.744 32.256zM379.904 738.304c0-0.512 0.512-0.512 0.512-1.024l161.28-190.464c1.024-1.024 1.536-1.536 2.56-2.048 3.072-2.048 7.168-3.584 10.752-3.072 4.096 0 8.192 1.536 11.264 5.12 3.584 4.608 4.608 10.24 4.096 15.872v1.024l-21.504 107.008 84.48 0.512c5.12 0 9.728 2.56 12.288 7.168 2.048 5.12 1.536 11.264-1.536 15.872 0 0.512 0 1.024-1.024 1.536l-188.928 199.68c-1.024 1.024-2.048 2.048-3.584 2.56-3.072 1.536-6.144 2.048-9.216 2.048-4.096 0-8.704-1.536-11.264-5.12-3.072-3.584-4.096-8.192-4.096-12.288v-2.048l41.472-119.296H392.704c-5.632 0.512-11.264-2.56-14.336-7.68-2.56-5.632-2.048-11.264 1.536-15.36" /></svg>