<?xml version="1.0" standalone="no"?><!DOCTYPE svg PUBLIC "-//W3C//DTD SVG 1.1//EN" "http://www.w3.org/Graphics/SVG/1.1/DTD/svg11.dtd"><svg class="icon" width="200px" height="200.00px" viewBox="0 0 1024 1024" version="1.1" xmlns="http://www.w3.org/2000/svg"><path fill="#bfbfbf" d="M384 256h64v64h-64z m96 0h64v64h-64z m96 0h64v64h-64zM400 368a16 16 0 1 0 32 0 16 16 0 1 0-32 0z m48 0a16 16 0 1 0 32 0 16 16 0 1 0-32 0z m48 0a16 16 0 1 0 32 0 16 16 0 1 0-32 0z m48 0a16 16 0 1 0 32 0 16 16 0 1 0-32 0z m48 0a16 16 0 1 0 32 0 16 16 0 1 0-32 0zM288 128v768h448V128H288z m416 736H320V448h384v416zM320 416V192h384v224H320z m96 264h96l-48 120 144-168h-96l48-120z m-64-200h32v64h-32z"  /></svg>