<?xml version="1.0" standalone="no"?><!DOCTYPE svg PUBLIC "-//W3C//DTD SVG 1.1//EN" "http://www.w3.org/Graphics/SVG/1.1/DTD/svg11.dtd"><svg class="icon" width="200px" height="200.00px" viewBox="0 0 1024 1024" version="1.1" xmlns="http://www.w3.org/2000/svg"><path fill="#bfbfbf" d="M690.553263 817.475368c37.726316 0 75.452632 0.215579 113.178948-0.215579 9.162105-0.107789 12.449684 2.425263 12.234105 11.991579-0.538947 29.911579-0.781474 59.823158 0 89.734737 0.323368 12.126316-7.060211 9.377684-13.743158 9.916632-7.922526 0.646737-11.452632-1.212632-11.237053-10.34779 0.673684-21.342316-0.215579-42.684632 0.431158-64.026947 0.242526-9.566316-3.287579-12.099368-12.395789-12.099368-67.368421 0.350316-134.548211 0.242526-201.862737 0.134736-6.844632 0-11.237053 1.536-13.985684 8.461474-4.500211 11.425684-13.635368 19.132632-24.522106 24.090947-6.278737 2.856421-8.138105 6.817684-7.922526 13.204211 0.431158 10.320842-0.323368 20.668632 0.215579 30.908632 0.323368 7.141053-1.428211 9.997474-9.242947 9.781894-15.494737-0.431158-15.494737 0-15.494737-15.845052 0-3.179789-0.215579-6.386526 0-9.566316 0.970105-14.282105 1.886316-27.621053-16.276211-33.657263-7.706947-2.533053-13.096421-10.886737-15.952842-19.240421-2.101895-6.063158-5.739789-8.138105-11.883789-8.138106-64.458105 0.107789-128.916211 0.215579-193.374316 0-7.922526 0-10.455579 2.964211-10.34779 10.671158 0.323368 22.096842-0.215579 44.085895 0.323369 66.209685 0.215579 7.814737-2.317474 10.455579-9.701053 9.350736-6.467368-0.997053-15.602526 3.853474-15.36-9.458526 0.538947-30.261895 0.431158-60.496842 0-90.758737-0.134737-9.242947 3.503158-11.210105 11.964632-11.210105 70.871579 0.215579 141.689263 0 212.533895 0.323368 8.353684 0 13.850947-1.320421 17.246315-9.889684 4.203789-10.778947 13.338947-17.623579 23.552-22.231579 6.063158-2.748632 7.491368-6.278737 7.27579-12.314947-0.350316-10.994526 0.323368-22.096842-0.215579-33.118316-0.673684-13.096421 8.677053-8.784842 15.279158-9.701053 7.356632-0.970105 10.105263 1.778526 9.701052 9.377685-0.673684 10.671158 0.080842 21.342316-0.242526 32.013473-0.215579 6.709895 1.320421 11.102316 8.461474 13.850948 11.452632 4.311579 19.806316 12.773053 24.198737 24.198737 2.533053 6.736842 6.494316 7.814737 12.880842 7.814736 38.157474-0.323368 76.234105-0.215579 114.283789-0.215579z m-170.927158 36.648421a23.767579 23.767579 0 0 0 23.740632-23.659789 24.441263 24.441263 0 0 0-23.983158-24.872421c-13.069474-0.215579-24.953263 11.210105-25.061053 24.090947-0.107789 13.958737 10.563368 24.306526 25.303579 24.414316z m272.437895 99.974737c25.653895 0 51.280842 0.215579 76.907789-0.107789 6.925474-0.107789 9.458526 1.967158 9.135158 9.000421-0.431158 11.021474-0.323368 22.096842 0 33.145263 0.107789 5.254737-1.077895 7.68-7.033263 7.545263a19193.532632 19193.532632 0 0 0-159.178105 0c-5.497263 0-7.599158-1.616842-7.491368-7.248842 0.350316-11.425684 0.458105-22.770526 0-34.223158-0.323368-6.790737 2.425263-8.353684 8.704-8.353684 26.300632 0.350316 52.574316 0.242526 78.955789 0.242526z m-273.327158 0c25.303579 0 50.607158 0.431158 75.802947-0.215579 9.216-0.242526 11.533474 2.748632 10.994527 11.425685-0.781474 10.24-0.458105 20.695579-0.10779 30.908631 0.107789 5.389474-1.428211 7.491368-7.168 7.491369a19193.532632 19193.532632 0 0 0-159.151158 0c-5.847579 0-7.275789-2.209684-7.06021-7.491369 0.350316-10.671158 0.538947-21.342316-0.10779-32.013474-0.431158-7.814737 1.670737-10.455579 9.916632-10.320842 25.6 0.538947 51.253895 0.215579 76.880842 0.215579zM246.595368 1003.600842c-25.626947 0-51.253895-0.242526-76.880842 0.10779-7.168 0.107789-10.347789-1.428211-9.916631-9.350737 0.673684-10.994526 0.458105-22.096842 0.107789-33.118316-0.107789-5.605053 1.886316-7.356632 7.383579-7.356632 52.682105 0.107789 105.364211 0.215579 158.073263 0 6.925474 0 8.353684 2.748632 8.138106 8.892632-0.323368 10.671158-0.538947 21.342316 0 32.013474 0.323368 7.033263-2.101895 9.027368-9.027369 8.892631-25.950316-0.323368-51.927579-0.080842-77.877895-0.080842z m270.282106-303.616c-112.64 0-225.172211-0.323368-337.812211 0.323369-15.521684 0.134737-19.267368-4.284632-19.132631-19.56379 0.538947-190.733474 0.646737-381.574737-0.134737-572.335158-0.107789-17.246316 5.928421-19.914105 20.803368-19.671579 35.624421 0.754526 35.624421 0.215579 35.624421-35.435789 0-34.223158 0-34.223158 33.549474-34.223158h546.169263c22.878316 0 22.878316 0 22.986105 22.447158 0.107789 14.524632-4.500211 32.444632 2.209685 42.792421 7.572211 11.776 26.839579 3.961263 40.906105 4.392421 12.988632 0.350316 11.668211 7.922526 11.66821 16.168421v262.575158c0 104.394105-0.323368 208.896 0.323369 313.290105 0.107789 15.279158-3.745684 19.563789-19.240421 19.456-112.747789-0.538947-225.387789-0.215579-337.92-0.215579z m0-576.161684H217.653895c-22.878316 0-22.878316 0-22.878316 22.204631v483.004632c0 36.298105 0 35.301053 36.864 36.756211 17.92 0.646737 22.339368-4.527158 22.204632-22.231579-0.754526-137.054316-0.107789-274.108632-0.754527-411.189895-0.107789-16.276211 4.608-20.345263 20.48-20.129684 64.107789 0.889263 128.350316 0.889263 192.485053 0 15.710316-0.215579 20.560842 3.853474 20.560842 20.129684-0.646737 138.293895-0.107789 276.453053-0.646737 414.72 0 14.524632 3.961263 18.701474 18.593684 18.593684 105.579789-0.538947 211.186526-0.673684 316.685474 0 15.171368 0.107789 18.054737-5.066105 18.054737-19.051789-0.458105-167.962947-0.565895-335.925895 0.080842-503.91579 0.107789-15.818105-4.608-19.240421-19.671579-19.132631-100.998737 0.538947-201.862737 0.242526-302.834526 0.242526z m-228.702316 287.528421c0 50.149053 0.323368 100.325053-0.215579 150.474105-0.107789 11.776 2.748632 16.276211 15.386947 16.060632a4466.526316 4466.526316 0 0 1 133.012211 0c12.638316 0.215579 15.494737-4.284632 15.386947-16.060632-0.431158-99.759158-0.431158-199.545263 0-299.196631 0-11.856842-2.856421-16.060632-15.386947-15.952842-44.328421 0.781474-88.656842 0.781474-133.012211 0-12.530526-0.215579-15.629474 3.961263-15.386947 15.952842 0.538947 49.610105 0.215579 99.220211 0.215579 148.722526z m228.702316-324.500211h61.170526c63.568842 0 127.029895 0.107789 190.598737-0.215579 5.066105 0 11.883789 3.179789 14.982737-4.742736 6.467368-16.168421-1.104842-28.267789-18.054737-28.26779-165.537684 0-331.102316 0.107789-496.64-0.215579-12.314947 0-18.809263 1.320421-18.809263 16.599579 0.107789 14.632421 5.389474 17.057684 18.243368 16.949895 82.944-0.323368 165.672421-0.107789 248.508632-0.10779zM371.658105 618.145684H317.547789c-29.803789 0-29.157053 0-29.696 29.264842-0.215579 12.773053 2.964211 17.246316 16.49179 16.949895 38.938947-0.889263 77.985684 0.107789 116.951579-0.458105 34.411789-0.431158 29.453474 7.491368 30.450526-32.121263 0.215579-10.563368-2.856421-14.282105-13.743158-13.958737-22.096842 0.889263-44.220632 0.323368-66.344421 0.323368z m404.48-314.826105c-49.044211 52.493474-95.043368 101.645474-141.015579 150.716632-1.212632-0.673684-2.317474-1.428211-3.503158-2.101895 11.317895-23.201684 22.635789-46.403368 34.088421-69.632 17.381053-35.408842 17.381053-35.408842-21.800421-34.762105-18.701474 0.350316-18.701474 0.242526-10.428631-16.060632 15.818105-31.124211 32.229053-62.032842 47.50821-93.372632 4.176842-8.704 9.242947-11.776 18.701474-11.452631 18.054737 0.781474 36.082526 0.215579 58.206316 0.215579-15.737263 25.977263-30.046316 49.852632-46.106948 76.449684h64.350316z m-96.579368 247.511579h-94.369684c-12.341895 0-25.088-0.997053-25.653895-16.707369-0.538947-15.952842 11.883789-17.946947 24.441263-17.946947h192.269474c11.856842 0 23.444211 1.751579 23.659789 16.707369 0.323368 16.087579-11.668211 17.946947-24.198737 17.946947h-96.14821z m1.886316 42.361263h94.369684c12.530526 0 24.522105 1.859368 24.090947 18.02779-0.458105 14.955789-11.883789 16.599579-23.767579 16.599578h-192.269473c-12.665263 0-24.764632-2.182737-24.333474-18.027789 0.350316-14.740211 12.234105-16.599579 23.983158-16.599579h97.899789z" /></svg>