<svg width="1024" height="1024" xmlns="http://www.w3.org/2000/svg" version="1.1" class="icon">

 <g>
  <title>background</title>
  <rect fill="none" id="canvas_background" height="819" width="1662" y="-1" x="-1"/>
 </g>
 <g>
  <title>Layer 1</title>
  <path id="svg_1" d="m673.6,655.6l-34.2,36.6c-1.9,-2.1 -3.8,-4.1 -5.8,-6.1c-32.5,-32.5 -75.7,-50.4 -121.6,-50.4c-45.9,0 -89.1,17.9 -121.6,50.4c-2,2 -3.9,4 -5.8,6.1l-34.2,-36.6c40.5,-43 97.9,-69.8 161.6,-69.8s121.2,26.8 161.6,69.8zm-469.4,-156.6l34.1,36.6c0.2,-0.2 0.5,-0.5 0.7,-0.8c35.5,-35.5 76.8,-63.3 122.7,-82.7c47.6,-20.1 98.1,-30.3 150.2,-30.3s102.7,10.2 150.2,30.3c46,19.4 87.2,47.3 122.7,82.7c0.2,0.2 0.5,0.5 0.7,0.8l34.1,-36.6c-78.6,-78.7 -187.4,-127.3 -307.6,-127.3s-229,48.6 -307.8,127.3zm307.8,-341.3c-176.6,0 -336.7,70.4 -453.9,184.7l34.1,36.6c26,-25.4 54.3,-48.6 84.3,-68.8c32.1,-21.7 66.4,-40.3 101.9,-55.3c73.9,-31.3 152.5,-47.1 233.5,-47.1s159.6,15.9 233.5,47.1c35.5,15 69.8,33.6 101.9,55.3c30,20.3 58.4,43.4 84.3,68.8l34.1,-36.6c-117,-114.2 -277.1,-184.7 -453.7,-184.7zm0,618.6c-22.1,0 -40,17.9 -40,40s17.9,40 40,40s40,-17.9 40,-40s-17.9,-40 -40,-40z" fill="#ffffff"/>
  <ellipse stroke="null" ry="127.500002" rx="135.000007" id="svg_6" cy="808.132804" cx="890.749977" stroke-opacity="null" stroke-width="null" fill="#1de24b"/>
  <path d="m928.249939,790.632813c0,0 2.690308,-0.956726 5,0c6.532837,2.705994 10.732239,5.732239 12.5,7.5c1.767761,1.767761 2.690308,1.543274 5,2.5c3.266418,1.352966 5.732239,3.232239 7.5,5c1.767761,1.767761 5.775024,4.15625 12.5,0c6.015015,-3.717468 9.233582,-11.147034 12.5,-12.5c2.309692,-0.956726 4.043274,-5.190308 5,-7.5c1.352966,-3.266418 2.5,-5 2.5,-7.5c0,-2.5 0,-5 0,-7.5l0,-2.5l0,-2.5" id="svg_9" stroke-opacity="null" stroke-width="null" stroke="null" fill="none"/>
  <path id="svg_11" d="m946.008084,786.753294l0.014145,-0.01415l0.03875,0.038745l0.064595,-0.064575l0.01415,0.01414l-0.078745,0.078735" stroke-opacity="null" stroke-width="null" stroke="null" fill="#1de24b"/>
  <path id="svg_12" d="m199.758115,112.640801l0.014145,-0.01415l0.03875,0.038745l0.064595,-0.064575l0.01415,0.01414l-0.078745,0.078735" fill-opacity="null" stroke-opacity="null" stroke-width="null" stroke="null" fill="#1de24b"/>
  <path id="svg_13" d="m-1038.898864,268.18479l44.323998,-11.045761l121.424879,30.24509l202.411356,-50.408483l44.339665,11.037955l-246.751022,61.46205" fill-opacity="null" stroke-opacity="null" stroke-width="null" stroke="null" fill="#ffffff"/>
  <path stroke="null" id="svg_15" d="m854.982994,806.180138l9.670691,-9.522199l26.492701,26.07333l44.162479,-43.45555l9.674109,9.51547l-53.836588,52.984479" stroke-opacity="null" stroke-width="null" fill="#ffffff"/>
 </g>
</svg>