<svg xmlns="http://www.w3.org/2000/svg" viewBox="0 0 350.64 98.15"><defs><style>.cls-1,.cls-2{fill:#fff;}.cls-1{fill-rule:evenodd;}</style></defs><g id="图层_2" data-name="图层 2"><g id="图层_1-2" data-name="图层 1"><path class="cls-1" d="M51.69,41.46a3.87,3.87,0,0,1-5.5,0,3.94,3.94,0,0,1,0-5.53L80.76,1.15a3.87,3.87,0,0,1,5.5,0,3.93,3.93,0,0,1,0,5.52ZM41.33,29.73a3.86,3.86,0,0,1-5.49,0,3.91,3.91,0,0,1,0-5.52L52.41,7.53a3.87,3.87,0,0,1,5.5,0,3.94,3.94,0,0,1,0,5.53ZM38.54,45.21a3.89,3.89,0,1,1-3.86,3.89A3.87,3.87,0,0,1,38.54,45.21Zm-13-3.83-14-14.09a3.92,3.92,0,0,1,0-5.53,3.86,3.86,0,0,1,5.49,0L31,35.85a3.94,3.94,0,0,1,0,5.53A3.89,3.89,0,0,1,25.5,41.38Zm-5,7.7a3.92,3.92,0,0,1-1.14,2.79L6.63,64.66a3.86,3.86,0,0,1-5.49,0,3.92,3.92,0,0,1,0-5.53l10-10.06-10-10a3.92,3.92,0,0,1,0-5.53,3.86,3.86,0,0,1,5.49,0L19.35,46.28A3.94,3.94,0,0,1,20.49,49.08Zm5,7.69a3.89,3.89,0,0,1,5.5,0,3.94,3.94,0,0,1,0,5.53L17,76.39a3.86,3.86,0,0,1-5.49,0,3.92,3.92,0,0,1,0-5.53ZM41.33,68.42,57.91,85.09a3.94,3.94,0,0,1,0,5.53,3.87,3.87,0,0,1-5.5,0L35.84,73.94a3.91,3.91,0,0,1,0-5.52A3.86,3.86,0,0,1,41.33,68.42ZM76,64.74a3.88,3.88,0,0,1-5.51,0L57.69,51.88a4,4,0,0,1,0-5.61L70.46,33.41a3.88,3.88,0,0,1,5.51,0A4,4,0,0,1,76,39l-10,10.1L76,59.18A4,4,0,0,1,76,64.74Zm-29.77-8a3.86,3.86,0,0,1,5.49,0L86.26,91.47a3.94,3.94,0,0,1,0,5.53,3.87,3.87,0,0,1-5.5,0L46.2,62.21A3.91,3.91,0,0,1,46.2,56.69Z"/><path class="cls-2" d="M175,40.65c-1.63-1-4.44-1.55-8.42-1.55H149.3L143,77.31h7.88L156,46h8a19.13,19.13,0,0,1,2.83.2,3.23,3.23,0,0,1,1.87.81,2.56,2.56,0,0,1,.57,1.82,43.89,43.89,0,0,1-.76,5.93l-3.75,22.51h7.88l3.82-23.12a72.77,72.77,0,0,0,1-8.22C177.47,43.46,176.65,41.68,175,40.65Zm37.76-.31c-1.67-1.14-4.25-1.71-7.72-1.71h-4.33a30.42,30.42,0,0,0-6.7.6,9,9,0,0,0-4.17,2.09,9.62,9.62,0,0,0-2.13,3,22.22,22.22,0,0,0-1.55,5.49l-2.48,15.1a31,31,0,0,0-.45,4.71q0,4.11,2.54,5.9t8.65,1.79h11.7l2.6-6.81H196a8.15,8.15,0,0,1-3.82-.61,2.43,2.43,0,0,1-1-2.29,19.24,19.24,0,0,1,.32-3l.32-2.09h14q3.87,0,5.75-1.82t2.64-6.27l.89-5.32a16.68,16.68,0,0,0,.25-3Q215.29,42.06,212.78,40.34Zm-5.63,8.8-.7,4.38a2.7,2.7,0,0,1-1,2,3.31,3.31,0,0,1-1.72.44H192.91l1-6.2a7.88,7.88,0,0,1,1.24-3.3c.57-.76,1.83-1.15,3.78-1.15h4.52c1.82,0,2.92.21,3.3.61a2.18,2.18,0,0,1,.57,1.55Zm42.06-8q-2.67-2.05-8.77-2h-8.2l2.6-15.57H227l-8.9,53.78h16.66a29.09,29.09,0,0,0,6.67-.64,9.28,9.28,0,0,0,4.2-2.13,10.82,10.82,0,0,0,2.19-3.23,29.73,29.73,0,0,0,1.81-7.21l1.46-9a50.48,50.48,0,0,0,.83-7.21Q251.88,43.21,249.21,41.15Zm-6.17,14-1.46,9a10.89,10.89,0,0,1-1.78,5.05,3.41,3.41,0,0,1-2.45,1.22c-1,.09-1.79.13-2.25.13h-8l4.07-24.6h7.12a9.6,9.6,0,0,1,4.35.68,2.92,2.92,0,0,1,1.18,2.76Q243.81,50.15,243,55.14Zm36.13,15.23h-8.33a9.36,9.36,0,0,1-4.13-.64,2.3,2.3,0,0,1-1.15-2.19,44.3,44.3,0,0,1,.77-5.93l3.75-22.51h-7.89l-3.87,23.11a61.5,61.5,0,0,0-1,8.22c0,2.52.81,4.29,2.42,5.33s4.41,1.55,8.39,1.55h17.74l6.35-38.21h-7.88Zm27.49-.07a2.1,2.1,0,0,1-1.56-.88,3.29,3.29,0,0,1-.38-1.62,51.06,51.06,0,0,1,.89-6.53l6.3-37.74H304l-6.29,37.74a61.62,61.62,0,0,0-1,8.56q0,4.17,2.39,5.83t7.78,1.65h4.52l2.73-6.81h-3.69A25.74,25.74,0,0,1,306.66,70.3Zm41.66-29.55Q346,39.1,340.66,39.1H324.13l1.08,6.8H338a7.85,7.85,0,0,1,3.68.61,2.23,2.23,0,0,1,1,2.09,36.52,36.52,0,0,1-.64,4.58v.07h-9.53a30.57,30.57,0,0,0-7.31.61,6.21,6.21,0,0,0-3.53,2.52A15.46,15.46,0,0,0,319.74,62l-.44,2.36a37.43,37.43,0,0,0-.77,6.33,6.48,6.48,0,0,0,1,3.78,5.9,5.9,0,0,0,2.8,2.12,11.94,11.94,0,0,0,4.35.71h19.07l4.07-24.67q.82-5.39.83-6.6C350.64,43.61,349.86,41.85,348.32,40.75ZM339.19,70.5H328.9c-1.57,0-2.36-.52-2.36-1.55,0-.4.19-1.91.58-4.51l.19-1.35c.25-1.57.69-2.53,1.33-2.87a5.07,5.07,0,0,1,2.35-.5h10Z"/><polygon class="cls-2" points="135.86 19.77 134.7 26.41 109.42 26.41 108.08 33.87 123.2 33.87 115.53 77.31 124.61 77.31 132.27 33.9 133.38 33.9 142.31 33.9 153.43 33.9 135.86 19.77"/></g></g></svg>