<svg xmlns="http://www.w3.org/2000/svg" xmlns:xlink="http://www.w3.org/1999/xlink" width="0" height="0" style="display:none;"><symbol id="tn-icon-3d"></symbol><symbol id="tn-icon-3x3"></symbol><symbol id="tn-icon-add-with-bg"></symbol><symbol id="tn-icon-add"></symbol><symbol id="tn-icon-address-book"></symbol><symbol id="tn-icon-alarm"></symbol><symbol viewBox="0 0 24 24" id="tn-icon-alarm2">
<path d="M12 3C7.85786 3 4.5 6.35786 4.5 10.5V20.25C4.5 20.6642 4.83579 21 5.25 21H18.75C19.1642 21 19.5 20.6642 19.5 20.25V10.5C19.5 6.35786 16.1421 3 12 3ZM14.1906 9.53039L12.0695 11.6514L14.2124 13.7943L11.0303 16.9764L9.96968 15.9157L12.0911 13.7943L9.94821 11.6514L13.1299 8.46973L14.1906 9.53039Z" fill="#000000"></path>
</symbol><symbol id="tn-icon-android"></symbol><symbol id="tn-icon-app"></symbol><symbol id="tn-icon-apple"></symbol><symbol id="tn-icon-applying"></symbol><symbol id="tn-icon-arrow-down"></symbol><symbol id="tn-icon-arrow-jump"></symbol><symbol id="tn-icon-arrow-left"></symbol><symbol id="tn-icon-arrow-right"></symbol><symbol id="tn-icon-arrow-up"></symbol><symbol id="tn-icon-arrow_down"></symbol><symbol id="tn-icon-arrow_left"></symbol><symbol id="tn-icon-arrow_up"></symbol><symbol id="tn-icon-assets"></symbol><symbol id="tn-icon-attach"></symbol><symbol id="tn-icon-attach2"></symbol><symbol id="tn-icon-attendance"></symbol><symbol id="tn-icon-back"></symbol><symbol id="tn-icon-backward"></symbol><symbol id="tn-icon-bar-chart"></symbol><symbol id="tn-icon-barcode"></symbol><symbol id="tn-icon-box"></symbol><symbol viewBox="0 0 24 24" id="tn-icon-box2">
<path d="M12.375 3.21657C12.143 3.0826 11.8571 3.0826 11.625 3.21657L4.58077 7.28356C4.34872 7.41753 4.20577 7.66513 4.20577 7.93308V16.067C4.20577 16.335 4.34872 16.5826 4.58077 16.7166L11.625 20.7836C11.8571 20.9175 12.143 20.9175 12.375 20.7836L19.4192 16.7166C19.6513 16.5826 19.7942 16.335 19.7942 16.067V7.93308C19.7942 7.66513 19.6513 7.41753 19.4192 7.28356L12.375 3.21657ZM17.25 9.54904L12.75 12.1471V17.25H11.25L11.25 12.1471L6.75 9.54904L7.5 8.25L12 10.8481L16.5 8.25L17.25 9.54904Z" fill="#000000"></path>
</symbol><symbol id="tn-icon-bulletpoint"></symbol><symbol id="tn-icon-call"></symbol><symbol id="tn-icon-carret-left"></symbol><symbol id="tn-icon-carret-right"></symbol><symbol id="tn-icon-cart"></symbol><symbol id="tn-icon-catalog"></symbol><symbol viewBox="0 0 24 24" id="tn-icon-catalog2">
<path d="M9.66478 3.34086C9.71486 3.14053 9.89486 3 10.1013 3H13.8986C14.1051 3 14.2851 3.14053 14.3352 3.34086L14.6621 4.64849C14.7208 4.88318 14.8901 5.07286 15.1102 5.17329C15.5495 5.37373 15.966 5.61531 16.3548 5.89311C16.5518 6.03385 16.801 6.08579 17.0338 6.0192L18.3314 5.648C18.53 5.5912 18.7417 5.67682 18.8449 5.85564L20.7436 9.1442C20.8468 9.32303 20.8151 9.54917 20.6666 9.69271L19.6964 10.6309C19.5227 10.7988 19.443 11.04 19.4659 11.2805C19.4885 11.5173 19.5 11.7573 19.5 12C19.5 12.2427 19.4885 12.4827 19.4659 12.7194C19.443 12.96 19.5227 13.2011 19.6964 13.3691L20.6666 14.3072C20.8151 14.4507 20.8468 14.6769 20.7435 14.8557L18.8449 18.1443C18.7416 18.3231 18.5299 18.4087 18.3314 18.3519L17.0339 17.9807C16.8011 17.9142 16.5519 17.9661 16.3549 18.1068C15.966 18.3847 15.5495 18.6263 15.1102 18.8267C14.8901 18.9271 14.7208 19.1168 14.6621 19.3515L14.3352 20.6591C14.2851 20.8595 14.1051 21 13.8986 21H10.1013C9.89486 21 9.71486 20.8595 9.66478 20.6591L9.33787 19.3515C9.2792 19.1168 9.10985 18.9271 8.88977 18.8267C8.45048 18.6262 8.03392 18.3846 7.64501 18.1068C7.44801 17.966 7.19885 17.9141 6.96606 17.9807L5.66857 18.3518C5.47004 18.4086 5.25834 18.323 5.1551 18.1442L3.25645 14.8556C3.1532 14.6768 3.18491 14.4507 3.33336 14.3071L4.30359 13.369C4.4773 13.201 4.55694 12.9599 4.53405 12.7194C4.51152 12.4826 4.5 12.2427 4.5 12C4.5 11.7573 4.51152 11.5174 4.53406 11.2806C4.55695 11.04 4.4773 10.7989 4.30359 10.6309L3.33335 9.69279C3.1849 9.54925 3.15319 9.32311 3.25644 9.14428L5.15509 5.85572C5.25833 5.67689 5.47003 5.59128 5.66856 5.64807L6.96614 6.01926C7.19892 6.08585 7.44808 6.0339 7.64508 5.89316C8.03397 5.61534 8.45051 5.37374 8.88977 5.17329C9.10985 5.07286 9.2792 4.88318 9.33787 4.64849L9.66478 3.34086ZM16.5 9.75H14.7993C14.54 9.30165 14.0552 9 13.5 9C12.9448 9 12.46 9.30165 12.2007 9.75H7.5V11.25H12.2007C12.46 11.6984 12.9448 12 13.5 12C14.0552 12 14.54 11.6984 14.7993 11.25H16.5V9.75ZM7.5 12.75V14.25H16.5V12.75H7.5Z" fill="#000000"></path>
</symbol><symbol id="tn-icon-certification"></symbol><symbol id="tn-icon-chart-bar"></symbol><symbol id="tn-icon-chart-bubble"></symbol><symbol id="tn-icon-chart-pit"></symbol><symbol id="tn-icon-chat"></symbol><symbol id="tn-icon-check-mark"></symbol><symbol id="tn-icon-checkbox-checked"></symbol><symbol id="tn-icon-checkbox"></symbol><symbol id="tn-icon-chrome"></symbol><symbol id="tn-icon-circle-add"></symbol><symbol id="tn-icon-circle-down"></symbol><symbol id="tn-icon-circle-error"></symbol><symbol id="tn-icon-circle-info"></symbol><symbol id="tn-icon-circle-left"></symbol><symbol id="tn-icon-circle-money"></symbol><symbol id="tn-icon-circle-play"></symbol><symbol id="tn-icon-circle-remove"></symbol><symbol id="tn-icon-circle-right"></symbol><symbol id="tn-icon-circle-stop"></symbol><symbol id="tn-icon-circle-time"></symbol><symbol id="tn-icon-circle-up"></symbol><symbol id="tn-icon-close"></symbol><symbol id="tn-icon-cloud-download"></symbol><symbol id="tn-icon-cloud-upload"></symbol><symbol id="tn-icon-cloud"></symbol><symbol id="tn-icon-code"></symbol><symbol id="tn-icon-cold"></symbol><symbol id="tn-icon-config"></symbol><symbol id="tn-icon-contact"></symbol><symbol id="tn-icon-copy"></symbol><symbol id="tn-icon-creditcard"></symbol><symbol id="tn-icon-customerservice"></symbol><symbol id="tn-icon-dashboard"></symbol><symbol id="tn-icon-date"></symbol><symbol id="tn-icon-delete"></symbol><symbol id="tn-icon-desktop"></symbol><symbol viewBox="0 0 24 24" id="tn-icon-desktop2">
<path d="M3.75 3C3.33579 3 3 3.33579 3 3.75V15.75C3 16.1642 3.33579 16.5 3.75 16.5H11.25V19.5H6.75C6.33579 19.5 6 19.8358 6 20.25C6 20.6642 6.33579 21 6.75 21H17.25C17.6642 21 18 20.6642 18 20.25C18 19.8358 17.6642 19.5 17.25 19.5H12.75V16.5H19.9393L15.0914 11.6522C14.2551 12.0517 13.2231 11.9051 12.5303 11.2124L11.4697 10.1517L12.5303 9.09105L13.591 10.1517C13.8839 10.4446 14.3588 10.4446 14.6517 10.1517C14.9445 9.85881 14.9445 9.38394 14.6517 9.09105L13.591 8.03039L14.6517 6.96973L15.7123 8.03039C16.405 8.72312 16.5516 9.75517 16.1521 10.5915L21 15.4394V3.75C21 3.33579 20.6642 3 20.25 3H3.75Z" fill="#000000"></path>
</symbol><symbol id="tn-icon-digital-map"></symbol><symbol id="tn-icon-door"></symbol><symbol id="tn-icon-double-left"></symbol><symbol id="tn-icon-double-right"></symbol><symbol id="tn-icon-download"></symbol><symbol id="tn-icon-drop"></symbol><symbol id="tn-icon-edit"></symbol><symbol id="tn-icon-eject"></symbol><symbol id="tn-icon-electric"></symbol><symbol viewBox="0 0 24 24" id="tn-icon-electric2">
<path d="M6.75 3C6.33579 3 6 3.33579 6 3.75V6H3.75C3.33579 6 3 6.33579 3 6.75V20.25C3 20.6642 3.33579 21 3.75 21H20.25C20.6642 21 21 20.6642 21 20.25V6.75C21 6.33579 20.6642 6 20.25 6H18V3.75C18 3.33579 17.6642 3 17.25 3H14.25C13.8358 3 13.5 3.33579 13.5 3.75V6H10.5V3.75C10.5 3.33579 10.1642 3 9.75 3H6.75ZM14.1906 11.0304L12.0695 13.1514L14.2124 15.2943L11.0303 18.4764L9.96968 17.4157L12.0911 15.2943L9.94821 13.1514L13.1299 9.96973L14.1906 11.0304Z" fill="#000000"></path>
</symbol><symbol id="tn-icon-energy"></symbol><symbol viewBox="0 0 24 24" id="tn-icon-energy2">
<path d="M8.74216 14.5904C7.52886 11.5068 9.04504 8.02351 12.1286 6.81021L17.2 4.81477C17.9709 4.51145 18.8418 4.89049 19.1451 5.66139L21.1405 10.7328C22.3538 13.8164 20.8377 17.2997 17.7541 18.513L11.566 20.9478C11.5329 20.9608 11.4989 20.9676 11.4653 20.9686C11.3971 20.989 11.3248 20.9999 11.25 20.9999H8.25C5.35051 20.9999 3 18.6494 3 15.7499V14.9999C3 13.7573 4.00736 12.7499 5.25 12.7499H6.75C7.16421 12.7499 7.5 13.0857 7.5 13.4999C7.5 13.9142 7.16421 14.2499 6.75 14.2499H5.25C4.83579 14.2499 4.5 14.5857 4.5 14.9999V15.7499C4.5 17.821 6.17893 19.4999 8.25 19.4999H10.6739L8.74216 14.5904ZM13.5 9.75C13.5 9.33579 13.1642 9 12.75 9C12.3358 9 12 9.33579 12 9.75C12 10.1642 12.3358 10.5 12.75 10.5C13.1642 10.5 13.5 10.1642 13.5 9.75ZM16.916 11.1241L17.5401 10.708L16.708 9.45996L16.084 9.87599C13.5998 11.5321 12 14.7815 12 18V18.75H13.5V18C13.5 17.4957 13.546 16.9923 13.6334 16.4982C15.2991 16.4563 16.9221 15.6385 17.7803 14.7803L18.3107 14.2499L17.25 13.1893L16.7197 13.7196C16.1886 14.2507 15.1464 14.8132 14.0473 14.962C14.6343 13.3567 15.6546 11.965 16.916 11.1241Z" fill="#000000"></path>
</symbol><symbol id="tn-icon-enter"></symbol><symbol id="tn-icon-error"></symbol><symbol id="tn-icon-export"></symbol><symbol id="tn-icon-export2"></symbol><symbol viewBox="0 0 24 24" id="tn-icon-facility_operat">
<path d="M3 3.75C3 3.33579 3.33579 3 3.75 3H20.25C20.6642 3 21 3.33579 21 3.75V15.75C21 16.1642 20.6642 16.5 20.25 16.5H12.1993L17.6221 19.5987C17.9817 19.8042 18.1067 20.2624 17.9012 20.622C17.6957 20.9817 17.2375 21.1066 16.8779 20.9011L12 18.1137L7.12211 20.9011C6.76247 21.1066 6.30433 20.9817 6.09882 20.622C5.89331 20.2624 6.01826 19.8042 6.3779 19.5987L11.8007 16.5H3.75C3.33579 16.5 3 16.1642 3 15.75V3.75ZM7.21622 13.4512L10.3979 10.2695L12.5408 12.4124L17.8442 7.109L16.7835 6.04834L12.5408 10.291L10.3979 8.14819L6.15556 12.3906L7.21622 13.4512Z" fill="#000000"></path>
</symbol><symbol id="tn-icon-feedback"></symbol><symbol id="tn-icon-female"></symbol><symbol id="tn-icon-file-JPG"></symbol><symbol id="tn-icon-file-PDF"></symbol><symbol id="tn-icon-file-copy"></symbol><symbol id="tn-icon-file-exel"></symbol><symbol id="tn-icon-file-new"></symbol><symbol id="tn-icon-file-open"></symbol><symbol id="tn-icon-file-paste"></symbol><symbol id="tn-icon-file-powerpoint"></symbol><symbol id="tn-icon-file-unknown"></symbol><symbol id="tn-icon-file-word"></symbol><symbol id="tn-icon-file"></symbol><symbol id="tn-icon-filter-new"></symbol><symbol id="tn-icon-filter"></symbol><symbol id="tn-icon-fire"></symbol><symbol id="tn-icon-first-page"></symbol><symbol id="tn-icon-flag"></symbol><symbol id="tn-icon-folder-new"></symbol><symbol id="tn-icon-fork"></symbol><symbol id="tn-icon-forward"></symbol><symbol id="tn-icon-fullscreen-exit"></symbol><symbol id="tn-icon-fullscreen"></symbol><symbol id="tn-icon-fullscreen2"></symbol><symbol id="tn-icon-gift"></symbol><symbol id="tn-icon-github"></symbol><symbol id="tn-icon-group-add"></symbol><symbol id="tn-icon-grouping"></symbol><symbol id="tn-icon-hand-holding-box"></symbol><symbol id="tn-icon-heart"></symbol><symbol id="tn-icon-help"></symbol><symbol id="tn-icon-history"></symbol><symbol id="tn-icon-hollowfilter"></symbol><symbol id="tn-icon-home"></symbol><symbol id="tn-icon-hr"></symbol><symbol id="tn-icon-hvac"></symbol><symbol viewBox="0 0 24 24" id="tn-icon-hvac2">
<path d="M3 5.25C3 4.83579 3.33579 4.5 3.75 4.5H20.25C20.6642 4.5 21 4.83579 21 5.25V14.25C21 14.6642 20.6642 15 20.25 15H16.5V10.5H7.5V15H3.75C3.33579 15 3 14.6642 3 14.25V5.25ZM9 15H15V12H9V15ZM8.25 16.5C7.83579 16.5 7.5 16.8358 7.5 17.25V18.75C7.5 19.1642 7.83579 19.5 8.25 19.5C8.66421 19.5 9 19.1642 9 18.75V17.25C9 16.8358 8.66421 16.5 8.25 16.5ZM12 16.5C11.5858 16.5 11.25 16.8358 11.25 17.25V21.75C11.25 22.1642 11.5858 22.5 12 22.5C12.4142 22.5 12.75 22.1642 12.75 21.75V17.25C12.75 16.8358 12.4142 16.5 12 16.5ZM15.75 16.5C15.3358 16.5 15 16.8358 15 17.25V18.75C15 19.1642 15.3358 19.5 15.75 19.5C16.1642 19.5 16.5 19.1642 16.5 18.75V17.25C16.5 16.8358 16.1642 16.5 15.75 16.5Z" fill="#000000"></path>
</symbol><symbol id="tn-icon-ie"></symbol><symbol id="tn-icon-import"></symbol><symbol id="tn-icon-internet"></symbol><symbol id="tn-icon-lab"></symbol><symbol id="tn-icon-label"></symbol><symbol id="tn-icon-laptop"></symbol><symbol id="tn-icon-last-page"></symbol><symbol id="tn-icon-leak"></symbol><symbol id="tn-icon-light-bulb"></symbol><symbol id="tn-icon-link-unlink"></symbol><symbol id="tn-icon-link"></symbol><symbol id="tn-icon-list-radius"></symbol><symbol id="tn-icon-list"></symbol><symbol id="tn-icon-load-failed"></symbol><symbol id="tn-icon-load-success"></symbol><symbol id="tn-icon-location"></symbol><symbol id="tn-icon-lock-off"></symbol><symbol id="tn-icon-lock-on"></symbol><symbol id="tn-icon-login"></symbol><symbol id="tn-icon-logo"></symbol><symbol id="tn-icon-logout"></symbol><symbol id="tn-icon-mail"></symbol><symbol id="tn-icon-male"></symbol><symbol viewBox="0 0 24 24" id="tn-icon-manufacturing">
<path d="M9.66478 3.34086C9.71486 3.14053 9.89486 3 10.1013 3H13.8986C14.1051 3 14.2851 3.14053 14.3352 3.34086L14.6621 4.64849C14.7208 4.88318 14.8901 5.07286 15.1102 5.17329C15.5495 5.37373 15.966 5.61531 16.3548 5.89311C16.5518 6.03385 16.801 6.08579 17.0338 6.0192L18.3314 5.648C18.53 5.5912 18.7417 5.67682 18.8449 5.85564L20.7436 9.1442C20.8468 9.32303 20.8151 9.54917 20.6666 9.69271L19.6964 10.6309C19.5227 10.7988 19.443 11.04 19.4659 11.2805C19.4885 11.5173 19.5 11.7573 19.5 12C19.5 12.2427 19.4885 12.4827 19.4659 12.7194C19.443 12.96 19.5227 13.2011 19.6964 13.3691L20.6666 14.3072C20.8151 14.4507 20.8468 14.6769 20.7435 14.8557L18.9766 17.9161L13.1521 12.0915C13.5516 11.2552 13.405 10.2231 12.7123 9.53039L11.6516 8.46973L10.591 9.53039L11.6516 10.591C11.9445 10.8839 11.9445 11.3588 11.6516 11.6517C11.3588 11.9446 10.8839 11.9446 10.591 11.6517L9.53033 10.591L8.46967 11.6517L9.53033 12.7124C10.223 13.4051 11.2551 13.5517 12.0914 13.1522L16.8941 17.9549C16.7044 17.9382 16.5129 17.994 16.3549 18.1068C15.966 18.3847 15.5495 18.6263 15.1102 18.8267C14.8901 18.9271 14.7208 19.1168 14.6621 19.3515L14.3352 20.6591C14.2851 20.8595 14.1051 21 13.8986 21H10.1013C9.89486 21 9.71486 20.8595 9.66478 20.6591L9.33787 19.3515C9.2792 19.1168 9.10985 18.9271 8.88977 18.8267C8.45048 18.6262 8.03392 18.3846 7.64501 18.1068C7.44801 17.966 7.19885 17.9141 6.96606 17.9807L5.66857 18.3518C5.47004 18.4086 5.25834 18.323 5.1551 18.1442L3.25645 14.8556C3.1532 14.6768 3.18491 14.4507 3.33336 14.3071L4.30359 13.369C4.4773 13.201 4.55694 12.9599 4.53405 12.7194C4.51152 12.4826 4.5 12.2427 4.5 12C4.5 11.7573 4.51152 11.5174 4.53406 11.2806C4.55695 11.04 4.4773 10.7989 4.30359 10.6309L3.33335 9.69279C3.1849 9.54925 3.15319 9.32311 3.25644 9.14428L5.15509 5.85572C5.25833 5.67689 5.47003 5.59128 5.66856 5.64807L6.96614 6.01926C7.19892 6.08585 7.44808 6.0339 7.64508 5.89316C8.03397 5.61534 8.45051 5.37374 8.88977 5.17329C9.10985 5.07286 9.2792 4.88318 9.33787 4.64849L9.66478 3.34086Z" fill="#000000"></path>
</symbol><symbol id="tn-icon-menu-fold"></symbol><symbol id="tn-icon-menu-unfold"></symbol><symbol id="tn-icon-menu-up"></symbol><symbol id="tn-icon-minus"></symbol><symbol id="tn-icon-mobile-vibrate"></symbol><symbol id="tn-icon-mobile"></symbol><symbol id="tn-icon-monitor"></symbol><symbol id="tn-icon-more"></symbol><symbol id="tn-icon-multiple-lines"></symbol><symbol id="tn-icon-next"></symbol><symbol id="tn-icon-notice"></symbol><symbol viewBox="0 0 24 24" id="tn-icon-odm">
<path d="M4.5 3.5C4.5 3.22386 4.72386 3 5 3H19C19.2761 3 19.5 3.22386 19.5 3.5V9L4.5 9V3.5ZM13.5 6.75V5.25L6 5.25L6 6.75L13.5 6.75ZM15 6.75H16.5V5.25L15 5.25V6.75Z" fill="#000000"></path>
<path d="M4.5 10.5L19.5 10.5V16.5L4.5 16.5V10.5ZM16.5 14.25V12.75H15V14.25H16.5ZM6 14.25L13.5 14.25V12.75L6 12.75L6 14.25Z" fill="#000000"></path>
<path d="M4.5 18V20.5C4.5 20.7761 4.72386 21 5 21H19C19.2761 21 19.5 20.7761 19.5 20.5V18L4.5 18Z" fill="#000000"></path>
</symbol><symbol id="tn-icon-on"></symbol><symbol id="tn-icon-onedrive"></symbol><symbol id="tn-icon-order-ascending"></symbol><symbol id="tn-icon-order-descending"></symbol><symbol id="tn-icon-order-horizontal-bottomup"></symbol><symbol id="tn-icon-order-horizontal-normal"></symbol><symbol id="tn-icon-order-horizontal-updown"></symbol><symbol id="tn-icon-order-verticle-bottomup"></symbol><symbol id="tn-icon-order-verticle-normal"></symbol><symbol id="tn-icon-order-verticle-updown"></symbol><symbol id="tn-icon-others"></symbol><symbol id="tn-icon-overview"></symbol><symbol id="tn-icon-pause"></symbol><symbol id="tn-icon-people_outline"></symbol><symbol id="tn-icon-performance"></symbol><symbol id="tn-icon-photo"></symbol><symbol id="tn-icon-pie-chart"></symbol><symbol id="tn-icon-pin-inclined"></symbol><symbol id="tn-icon-pin-right"></symbol><symbol id="tn-icon-pin"></symbol><symbol id="tn-icon-previous"></symbol><symbol id="tn-icon-print"></symbol><symbol id="tn-icon-qrcode"></symbol><symbol id="tn-icon-question"></symbol><symbol id="tn-icon-queue"></symbol><symbol id="tn-icon-radio-checked"></symbol><symbol id="tn-icon-radio"></symbol><symbol id="tn-icon-rectangle-clear"></symbol><symbol id="tn-icon-rectangle-down"></symbol><symbol id="tn-icon-rectangle-left"></symbol><symbol id="tn-icon-rectangle-remove"></symbol><symbol id="tn-icon-rectangle-right"></symbol><symbol id="tn-icon-rectangle-tick"></symbol><symbol id="tn-icon-rectangle-up"></symbol><symbol id="tn-icon-refresh"></symbol><symbol id="tn-icon-right"></symbol><symbol id="tn-icon-rollback"></symbol><symbol id="tn-icon-save"></symbol><symbol id="tn-icon-scan"></symbol><symbol id="tn-icon-search"></symbol><symbol id="tn-icon-secured"></symbol><symbol viewBox="0 0 24 24" id="tn-icon-secured2">
<path d="M20.25 12.9116V4.10597C20.25 3.49516 19.7223 3 19.0714 3H4.92857C4.27766 3 3.75 3.49516 3.75 4.10598V12.9116C3.75 14.7068 4.67859 16.3902 6.2405 17.4267L11.3195 20.797C11.7273 21.0677 12.2727 21.0677 12.6805 20.797L17.7595 17.4267C19.3214 16.3902 20.25 14.7068 20.25 12.9116ZM14.1906 8.03039L12.0695 10.1514L14.2124 12.2943L11.0303 15.4764L9.96967 14.4157L12.0911 12.2943L9.9482 10.1514L13.1299 6.96973L14.1906 8.03039Z" fill="#000000"></path>
</symbol><symbol id="tn-icon-security"></symbol><symbol id="tn-icon-service"></symbol><symbol viewBox="0 0 24 24" id="tn-icon-service2">
<path d="M3.75 3C3.33579 3 3 3.33579 3 3.75V20.25C3 20.6642 3.33579 21 3.75 21H20.25C20.6642 21 21 20.6642 21 20.25V3.75C21 3.33579 20.6642 3 20.25 3H3.75ZM9.7123 6.53039C10.405 7.22311 10.5516 8.25516 10.1521 9.09151L15.6365 14.5759C16.4728 14.1763 17.5049 14.3229 18.1976 15.0157L19.2582 16.0763L18.1976 17.137L17.1369 16.0763C16.844 15.7834 16.3692 15.7834 16.0763 16.0763C15.7834 16.3692 15.7834 16.8441 16.0763 17.137L17.1369 18.1976L16.0763 19.2583L15.0156 18.1976C14.3229 17.5049 14.1763 16.4729 14.5758 15.6365L9.09144 10.1522C8.2551 10.5517 7.22305 10.4051 6.53032 9.71237L5.46966 8.65171L6.53032 7.59105L7.59098 8.65171C7.88387 8.9446 8.35875 8.9446 8.65164 8.65171C8.94454 8.35881 8.94454 7.88394 8.65164 7.59105L7.59098 6.53039L8.65164 5.46973L9.7123 6.53039Z" fill="#000000"></path>
</symbol><symbol id="tn-icon-setting"></symbol><symbol id="tn-icon-share-alt"></symbol><symbol id="tn-icon-shield"></symbol><symbol id="tn-icon-shop"></symbol><symbol id="tn-icon-sound"></symbol><symbol id="tn-icon-speed"></symbol><symbol id="tn-icon-star-hollow"></symbol><symbol id="tn-icon-star"></symbol><symbol id="tn-icon-stop"></symbol><symbol id="tn-icon-swap-left"></symbol><symbol id="tn-icon-swap-right"></symbol><symbol id="tn-icon-swap"></symbol><symbol id="tn-icon-thumb-down"></symbol><symbol id="tn-icon-thumb-up"></symbol><symbol id="tn-icon-tips"></symbol><symbol id="tn-icon-tools"></symbol><symbol viewBox="0 0 24 24" id="tn-icon-tools2">
<path d="M3.75 3C3.33579 3 3 3.33579 3 3.75V20.25C3 20.6642 3.33579 21 3.75 21H19.5001L15.8428 17.3428C15.1604 17.7597 14.3583 18 13.5 18C11.0147 18 9 15.9853 9 13.5C9 11.0147 11.0147 9 13.5 9C15.9853 9 18 11.0147 18 13.5C18 14.5844 17.6164 15.5792 16.9776 16.3562L20.9906 20.3692C20.9968 20.3304 21 20.2906 21 20.25V3.75C21 3.33579 20.6642 3 20.25 3H3.75Z" fill="#000000"></path>
<path d="M13.5 16.5C15.1569 16.5 16.5 15.1569 16.5 13.5C16.5 11.8431 15.1569 10.5 13.5 10.5C11.8431 10.5 10.5 11.8431 10.5 13.5C10.5 15.1569 11.8431 16.5 13.5 16.5Z" fill="#000000"></path>
</symbol><symbol id="tn-icon-turn-next"></symbol><symbol id="tn-icon-unbundling"></symbol><symbol id="tn-icon-upload"></symbol><symbol id="tn-icon-usb"></symbol><symbol id="tn-icon-user-add"></symbol><symbol id="tn-icon-user-delete"></symbol><symbol id="tn-icon-user"></symbol><symbol viewBox="0 0 24 24" id="tn-icon-user2">
<path d="M12 12C14.0711 12 15.75 10.3211 15.75 8.25C15.75 6.17893 14.0711 4.5 12 4.5C9.92893 4.5 8.25 6.17893 8.25 8.25C8.25 10.3211 9.92893 12 12 12Z" fill="#000000"></path>
<path d="M20.3149 19.0558C19.8626 17.9639 19.1997 16.9718 18.364 16.136C17.5282 15.3003 16.5361 14.6374 15.4442 14.1851C14.3522 13.7328 13.1819 13.5 12 13.5C10.8181 13.5 9.64778 13.7328 8.55585 14.1851C7.46392 14.6374 6.47177 15.3003 5.63604 16.136C4.80031 16.9718 4.13738 17.9639 3.68509 19.0559C3.4711 19.5725 3.30624 20.1066 3.19193 20.6513C3.15379 20.833 3.29519 21 3.48085 21H20.5192C20.7048 21 20.8462 20.833 20.8081 20.6513C20.6938 20.1066 20.5289 19.5725 20.3149 19.0558Z" fill="#000000"></path>
</symbol><symbol id="tn-icon-usergroup-delete"></symbol><symbol id="tn-icon-usergroup"></symbol><symbol id="tn-icon-users"></symbol><symbol id="tn-icon-video"></symbol><symbol id="tn-icon-view-module"></symbol><symbol id="tn-icon-visibility-off"></symbol><symbol id="tn-icon-visibility-on"></symbol><symbol id="tn-icon-wallet"></symbol><symbol id="tn-icon-water-handler"></symbol><symbol id="tn-icon-wifi"></symbol><symbol id="tn-icon-windows"></symbol><symbol viewBox="0 0 24 24" id="tn-icon-wms">
<path d="M7.5 15.0001H9V16.5001H7.5V15.0001Z" fill="#000000"></path>
<path d="M11.6141 3.23164L3.72826 7.96316C3.27645 8.23424 3 8.7225 3 9.2494V20.2501C3 20.6643 3.33579 21.0001 3.75 21.0001H20.25C20.6642 21.0001 21 20.6643 21 20.2501V9.2494C21 8.7225 20.7236 8.23424 20.2717 7.96316L12.3859 3.23164C12.1484 3.08913 11.8516 3.08913 11.6141 3.23164ZM6 18.0001V13.5001H10.5V18.0001H6ZM16.5 13.5001V15.0001H12V13.5001H16.5ZM12 16.5001H18V18.0001H12V16.5001Z" fill="#000000"></path>
</symbol><symbol id="tn-icon-zoom-in"></symbol><symbol id="tn-icon-zoom-out"></symbol></svg>