<?xml version="1.0" standalone="no"?><!DOCTYPE svg PUBLIC "-//W3C//DTD SVG 1.1//EN" "http://www.w3.org/Graphics/SVG/1.1/DTD/svg11.dtd"><svg class="icon" width="200px" height="200.00px" viewBox="0 0 1024 1024" version="1.1" xmlns="http://www.w3.org/2000/svg"><path fill="#ffffff" d="M673.6 655.6l-34.2 36.6c-1.9-2.1-3.8-4.1-5.8-6.1-32.5-32.5-75.7-50.4-121.6-50.4-45.9 0-89.1 17.9-121.6 50.4-2 2-3.9 4-5.8 6.1l-34.2-36.6c40.5-43 97.9-69.8 161.6-69.8s121.2 26.8 161.6 69.8zM204.2 499l34.1 36.6c0.2-0.2 0.5-0.5 0.7-0.8 35.5-35.5 76.8-63.3 122.7-82.7 47.6-20.1 98.1-30.3 150.2-30.3s102.7 10.2 150.2 30.3c46 19.4 87.2 47.3 122.7 82.7 0.2 0.2 0.5 0.5 0.7 0.8l34.1-36.6C741 420.3 632.2 371.7 512 371.7S283 420.3 204.2 499zM512 157.7c-176.6 0-336.7 70.4-453.9 184.7L92.2 379c26-25.4 54.3-48.6 84.3-68.8 32.1-21.7 66.4-40.3 101.9-55.3 73.9-31.3 152.5-47.1 233.5-47.1s159.6 15.9 233.5 47.1c35.5 15 69.8 33.6 101.9 55.3 30 20.3 58.4 43.4 84.3 68.8l34.1-36.6C848.7 228.2 688.6 157.7 512 157.7z m0 618.6c-22.1 0-40 17.9-40 40s17.9 40 40 40 40-17.9 40-40-17.9-40-40-40z"  /></svg>