<?xml version="1.0" standalone="no"?><!DOCTYPE svg PUBLIC "-//W3C//DTD SVG 1.1//EN" "http://www.w3.org/Graphics/SVG/1.1/DTD/svg11.dtd"><svg class="icon" width="200px" height="200.00px" viewBox="0 0 1024 1024" version="1.1" xmlns="http://www.w3.org/2000/svg"><path d="M278.186667 655.36c15.36 18.773333 32.426667 34.133333 49.493333 51.2 47.786667-47.786667 112.64-76.8 184.32-76.8s136.533333 29.013333 184.32 76.8l49.493333-49.493333c-63.146667-63.146667-145.066667-97.28-233.813333-97.28-88.746667-1.706667-170.666667 32.426667-233.813333 95.573333z m138.24 124.586667l49.493333 49.493333 46.08 44.373333 93.866667-93.866666c-23.893333-23.893333-58.026667-39.253333-93.866667-39.253334-37.546667 0-69.973333 15.36-95.573333 39.253334zM512 346.453333c-71.68 0-139.946667 13.653333-204.8 40.96-63.146667 27.306667-119.466667 64.853333-167.253333 112.64l-1.706667 1.706667 49.493333 49.493333c83.626667-83.626667 197.973333-134.826667 324.266667-134.826666s240.64 51.2 322.56 133.12l49.493333-49.493334c-47.786667-47.786667-104.106667-87.04-167.253333-112.64-64.853333-25.6-133.12-40.96-204.8-40.96z m512 15.36c-66.56-66.56-143.36-119.466667-230.4-155.306666C704.853333 168.96 609.28 150.186667 512 150.186667s-192.853333 18.773333-281.6 56.32c-85.333333 35.84-163.84 88.746667-230.4 155.306666l49.493333 49.493334c119.466667-117.76 281.6-191.146667 462.506667-191.146667s344.746667 73.386667 462.506667 191.146667l49.493333-49.493334z" fill="#c0c0c0" /><path d="M759.466667 375.466667c-128 0-232.106667 104.106667-232.106667 232.106666S631.466667 839.68 759.466667 839.68s232.106667-104.106667 232.106666-232.106667S887.466667 375.466667 759.466667 375.466667z" fill="#fb051f" /><path d="M882.346667 692.906667c5.12 5.12 8.533333 11.946667 8.533333 20.48 0 15.36-11.946667 27.306667-27.306667 27.306666-6.826667 0-15.36-3.413333-20.48-8.533333L759.466667 648.533333l-83.626667 83.626667c-5.12 5.12-11.946667 8.533333-20.48 8.533333-15.36 0-27.306667-11.946667-27.306667-27.306666 0-8.533333 3.413333-15.36 8.533334-20.48l83.626666-83.626667-83.626666-83.626667c-5.12-5.12-8.533333-11.946667-8.533334-20.48 0-15.36 11.946667-27.306667 27.306667-27.306666 6.826667 0 15.36 3.413333 20.48 8.533333l83.626667 83.626667 83.626666-83.626667c5.12-5.12 11.946667-8.533333 20.48-8.533333 15.36 0 27.306667 11.946667 27.306667 27.306666 0 8.533333-3.413333 15.36-8.533333 20.48l-83.626667 83.626667 83.626667 83.626667z" fill="#FFFFFF" /></svg>